G04 #@! TF.GenerationSoftware,KiCad,Pcbnew,5.1.0*
G04 #@! TF.CreationDate,2019-04-07T16:46:14+09:00*
G04 #@! TF.ProjectId,micro_cmos_guy,6d696372-6f5f-4636-9d6f-735f6775792e,rev?*
G04 #@! TF.SameCoordinates,Original*
G04 #@! TF.FileFunction,Legend,Bot*
G04 #@! TF.FilePolarity,Positive*
%FSLAX46Y46*%
G04 Gerber Fmt 4.6, Leading zero omitted, Abs format (unit mm)*
G04 Created by KiCad (PCBNEW 5.1.0) date 2019-04-07 16:46:14*
%MOMM*%
%LPD*%
G04 APERTURE LIST*
%ADD10C,0.150000*%
G04 APERTURE END LIST*
D10*
X116200000Y-111200000D02*
X118200000Y-111200000D01*
X116300000Y-90600000D02*
X118200000Y-90600000D01*
X118200000Y-111200000D02*
X124000000Y-104700000D01*
X118200000Y-90600000D02*
X124000000Y-97100000D01*
X124000000Y-104700000D02*
X124000000Y-97100000D01*
X116300000Y-90600000D02*
X116300000Y-85300000D01*
X116300000Y-85300000D02*
X110900000Y-85300000D01*
X110900000Y-85300000D02*
X110900000Y-90600000D01*
X110900000Y-90600000D02*
X104000000Y-90600000D01*
X116200000Y-111200000D02*
X116200000Y-116500000D01*
X116200000Y-116500000D02*
X110800000Y-116500000D01*
X110800000Y-116500000D02*
X110800000Y-111300000D01*
X110800000Y-111300000D02*
X104000000Y-111300000D01*
X104000000Y-90600000D02*
X104000000Y-111300000D01*
X113928571Y-100114285D02*
X113976190Y-100257142D01*
X114023809Y-100304761D01*
X114119047Y-100352380D01*
X114261904Y-100352380D01*
X114357142Y-100304761D01*
X114404761Y-100257142D01*
X114452380Y-100161904D01*
X114452380Y-99780952D01*
X113452380Y-99780952D01*
X113452380Y-100114285D01*
X113500000Y-100209523D01*
X113547619Y-100257142D01*
X113642857Y-100304761D01*
X113738095Y-100304761D01*
X113833333Y-100257142D01*
X113880952Y-100209523D01*
X113928571Y-100114285D01*
X113928571Y-99780952D01*
X113452380Y-100638095D02*
X113452380Y-101209523D01*
X114452380Y-100923809D02*
X113452380Y-100923809D01*
X114452380Y-102066666D02*
X114452380Y-101495238D01*
X114452380Y-101780952D02*
X113452380Y-101780952D01*
X113595238Y-101685714D01*
X113690476Y-101590476D01*
X113738095Y-101495238D01*
M02*
