G04 #@! TF.GenerationSoftware,KiCad,Pcbnew,5.1.0*
G04 #@! TF.CreationDate,2019-04-07T16:46:14+09:00*
G04 #@! TF.ProjectId,micro_cmos_guy,6d696372-6f5f-4636-9d6f-735f6775792e,rev?*
G04 #@! TF.SameCoordinates,Original*
G04 #@! TF.FileFunction,Legend,Top*
G04 #@! TF.FilePolarity,Positive*
%FSLAX46Y46*%
G04 Gerber Fmt 4.6, Leading zero omitted, Abs format (unit mm)*
G04 Created by KiCad (PCBNEW 5.1.0) date 2019-04-07 16:46:14*
%MOMM*%
%LPD*%
G04 APERTURE LIST*
%ADD10C,0.200000*%
%ADD11C,0.120000*%
%ADD12C,0.150000*%
G04 APERTURE END LIST*
D10*
X110357142Y-87057142D02*
X110300000Y-87104761D01*
X110128571Y-87152380D01*
X110014285Y-87152380D01*
X109842857Y-87104761D01*
X109728571Y-87009523D01*
X109671428Y-86914285D01*
X109614285Y-86723809D01*
X109614285Y-86580952D01*
X109671428Y-86390476D01*
X109728571Y-86295238D01*
X109842857Y-86200000D01*
X110014285Y-86152380D01*
X110128571Y-86152380D01*
X110300000Y-86200000D01*
X110357142Y-86247619D01*
X110871428Y-87152380D02*
X110871428Y-86152380D01*
X111271428Y-86866666D01*
X111671428Y-86152380D01*
X111671428Y-87152380D01*
X112471428Y-86152380D02*
X112700000Y-86152380D01*
X112814285Y-86200000D01*
X112928571Y-86295238D01*
X112985714Y-86485714D01*
X112985714Y-86819047D01*
X112928571Y-87009523D01*
X112814285Y-87104761D01*
X112700000Y-87152380D01*
X112471428Y-87152380D01*
X112357142Y-87104761D01*
X112242857Y-87009523D01*
X112185714Y-86819047D01*
X112185714Y-86485714D01*
X112242857Y-86295238D01*
X112357142Y-86200000D01*
X112471428Y-86152380D01*
X113442857Y-87104761D02*
X113614285Y-87152380D01*
X113900000Y-87152380D01*
X114014285Y-87104761D01*
X114071428Y-87057142D01*
X114128571Y-86961904D01*
X114128571Y-86866666D01*
X114071428Y-86771428D01*
X114014285Y-86723809D01*
X113900000Y-86676190D01*
X113671428Y-86628571D01*
X113557142Y-86580952D01*
X113500000Y-86533333D01*
X113442857Y-86438095D01*
X113442857Y-86342857D01*
X113500000Y-86247619D01*
X113557142Y-86200000D01*
X113671428Y-86152380D01*
X113957142Y-86152380D01*
X114128571Y-86200000D01*
X114642857Y-86771428D02*
X115557142Y-86771428D01*
X116757142Y-86200000D02*
X116642857Y-86152380D01*
X116471428Y-86152380D01*
X116300000Y-86200000D01*
X116185714Y-86295238D01*
X116128571Y-86390476D01*
X116071428Y-86580952D01*
X116071428Y-86723809D01*
X116128571Y-86914285D01*
X116185714Y-87009523D01*
X116300000Y-87104761D01*
X116471428Y-87152380D01*
X116585714Y-87152380D01*
X116757142Y-87104761D01*
X116814285Y-87057142D01*
X116814285Y-86723809D01*
X116585714Y-86723809D01*
X117842857Y-86485714D02*
X117842857Y-87152380D01*
X117328571Y-86485714D02*
X117328571Y-87009523D01*
X117385714Y-87104761D01*
X117500000Y-87152380D01*
X117671428Y-87152380D01*
X117785714Y-87104761D01*
X117842857Y-87057142D01*
X118300000Y-86485714D02*
X118585714Y-87152380D01*
X118871428Y-86485714D02*
X118585714Y-87152380D01*
X118471428Y-87390476D01*
X118414285Y-87438095D01*
X118300000Y-87485714D01*
X120185714Y-86247619D02*
X120242857Y-86200000D01*
X120357142Y-86152380D01*
X120642857Y-86152380D01*
X120757142Y-86200000D01*
X120814285Y-86247619D01*
X120871428Y-86342857D01*
X120871428Y-86438095D01*
X120814285Y-86580952D01*
X120128571Y-87152380D01*
X120871428Y-87152380D01*
X122300000Y-87152380D02*
X122300000Y-86152380D01*
X122300000Y-86533333D02*
X122414285Y-86485714D01*
X122642857Y-86485714D01*
X122757142Y-86533333D01*
X122814285Y-86580952D01*
X122871428Y-86676190D01*
X122871428Y-86961904D01*
X122814285Y-87057142D01*
X122757142Y-87104761D01*
X122642857Y-87152380D01*
X122414285Y-87152380D01*
X122300000Y-87104761D01*
X123271428Y-86485714D02*
X123557142Y-87152380D01*
X123842857Y-86485714D02*
X123557142Y-87152380D01*
X123442857Y-87390476D01*
X123385714Y-87438095D01*
X123271428Y-87485714D01*
X110671428Y-88852380D02*
X110671428Y-87852380D01*
X111357142Y-88852380D02*
X110842857Y-88280952D01*
X111357142Y-87852380D02*
X110671428Y-88423809D01*
X111871428Y-88852380D02*
X111871428Y-88185714D01*
X111871428Y-87852380D02*
X111814285Y-87900000D01*
X111871428Y-87947619D01*
X111928571Y-87900000D01*
X111871428Y-87852380D01*
X111871428Y-87947619D01*
X112442857Y-88185714D02*
X112442857Y-88852380D01*
X112442857Y-88280952D02*
X112500000Y-88233333D01*
X112614285Y-88185714D01*
X112785714Y-88185714D01*
X112900000Y-88233333D01*
X112957142Y-88328571D01*
X112957142Y-88852380D01*
X113700000Y-88852380D02*
X113585714Y-88804761D01*
X113528571Y-88757142D01*
X113471428Y-88661904D01*
X113471428Y-88376190D01*
X113528571Y-88280952D01*
X113585714Y-88233333D01*
X113700000Y-88185714D01*
X113871428Y-88185714D01*
X113985714Y-88233333D01*
X114042857Y-88280952D01*
X114100000Y-88376190D01*
X114100000Y-88661904D01*
X114042857Y-88757142D01*
X113985714Y-88804761D01*
X113871428Y-88852380D01*
X113700000Y-88852380D01*
X114557142Y-88804761D02*
X114671428Y-88852380D01*
X114900000Y-88852380D01*
X115014285Y-88804761D01*
X115071428Y-88709523D01*
X115071428Y-88661904D01*
X115014285Y-88566666D01*
X114900000Y-88519047D01*
X114728571Y-88519047D01*
X114614285Y-88471428D01*
X114557142Y-88376190D01*
X114557142Y-88328571D01*
X114614285Y-88233333D01*
X114728571Y-88185714D01*
X114900000Y-88185714D01*
X115014285Y-88233333D01*
X115585714Y-88852380D02*
X115585714Y-87852380D01*
X116100000Y-88852380D02*
X116100000Y-88328571D01*
X116042857Y-88233333D01*
X115928571Y-88185714D01*
X115757142Y-88185714D01*
X115642857Y-88233333D01*
X115585714Y-88280952D01*
X116671428Y-88852380D02*
X116671428Y-88185714D01*
X116671428Y-87852380D02*
X116614285Y-87900000D01*
X116671428Y-87947619D01*
X116728571Y-87900000D01*
X116671428Y-87852380D01*
X116671428Y-87947619D01*
X117071428Y-88185714D02*
X117528571Y-88185714D01*
X117242857Y-87852380D02*
X117242857Y-88709523D01*
X117300000Y-88804761D01*
X117414285Y-88852380D01*
X117528571Y-88852380D01*
X118442857Y-88852380D02*
X118442857Y-88328571D01*
X118385714Y-88233333D01*
X118271428Y-88185714D01*
X118042857Y-88185714D01*
X117928571Y-88233333D01*
X118442857Y-88804761D02*
X118328571Y-88852380D01*
X118042857Y-88852380D01*
X117928571Y-88804761D01*
X117871428Y-88709523D01*
X117871428Y-88614285D01*
X117928571Y-88519047D01*
X118042857Y-88471428D01*
X118328571Y-88471428D01*
X118442857Y-88423809D01*
X120100000Y-88852380D02*
X119985714Y-88804761D01*
X119928571Y-88709523D01*
X119928571Y-87852380D01*
X121071428Y-88852380D02*
X121071428Y-88328571D01*
X121014285Y-88233333D01*
X120900000Y-88185714D01*
X120671428Y-88185714D01*
X120557142Y-88233333D01*
X121071428Y-88804761D02*
X120957142Y-88852380D01*
X120671428Y-88852380D01*
X120557142Y-88804761D01*
X120500000Y-88709523D01*
X120500000Y-88614285D01*
X120557142Y-88519047D01*
X120671428Y-88471428D01*
X120957142Y-88471428D01*
X121071428Y-88423809D01*
X121642857Y-88852380D02*
X121642857Y-87852380D01*
X121642857Y-88233333D02*
X121757142Y-88185714D01*
X121985714Y-88185714D01*
X122100000Y-88233333D01*
X122157142Y-88280952D01*
X122214285Y-88376190D01*
X122214285Y-88661904D01*
X122157142Y-88757142D01*
X122100000Y-88804761D01*
X121985714Y-88852380D01*
X121757142Y-88852380D01*
X121642857Y-88804761D01*
X122728571Y-88757142D02*
X122785714Y-88804761D01*
X122728571Y-88852380D01*
X122671428Y-88804761D01*
X122728571Y-88757142D01*
X122728571Y-88852380D01*
D11*
X108980000Y-94250000D02*
X108980000Y-96250000D01*
X111020000Y-96250000D02*
X111020000Y-94250000D01*
X118150000Y-105150000D02*
X118850000Y-105150000D01*
X118850000Y-106350000D02*
X118150000Y-106350000D01*
X121150000Y-100900000D02*
X121150000Y-100200000D01*
X122350000Y-100200000D02*
X122350000Y-100900000D01*
X117200000Y-96050000D02*
X117200000Y-93450000D01*
X118300000Y-96050000D02*
X118300000Y-93450000D01*
X117200000Y-96050000D02*
X118300000Y-96050000D01*
D12*
X128150000Y-99250000D02*
X131150000Y-99250000D01*
X131150000Y-99250000D02*
X131150000Y-88150000D01*
X131150000Y-88150000D02*
X128250000Y-88150000D01*
X128250000Y-88150000D02*
X125350000Y-88150000D01*
X125350000Y-88150000D02*
X125350000Y-99250000D01*
X125350000Y-99250000D02*
X128250000Y-99250000D01*
X130750000Y-88150000D02*
X130750000Y-85550000D01*
X125750000Y-88150000D02*
X125750000Y-87450000D01*
X125750000Y-88150000D02*
X125750000Y-85150000D01*
X125750000Y-85150000D02*
X130750000Y-85150000D01*
X130750000Y-85150000D02*
X130750000Y-85550000D01*
X131900000Y-104250000D02*
G75*
G03X131900000Y-104250000I-3400000J0D01*
G01*
D11*
X114430000Y-93850000D02*
X114430000Y-94850000D01*
X113070000Y-94850000D02*
X113070000Y-93850000D01*
D10*
X131900000Y-116300000D02*
X131900000Y-109400000D01*
X131900000Y-109400000D02*
X125100000Y-109400000D01*
X125100000Y-109400000D02*
X125100000Y-116300000D01*
X125100000Y-116300000D02*
X131900000Y-116300000D01*
D12*
X130127882Y-112872118D02*
G75*
G03X130127882Y-112872118I-1627882J0D01*
G01*
X127200000Y-112900000D02*
X129800000Y-112900000D01*
X128500000Y-111600000D02*
X128500000Y-114200000D01*
D11*
X117250000Y-99750000D02*
X117250000Y-103750000D01*
X120250000Y-99750000D02*
X120250000Y-102750000D01*
D12*
X107683333Y-93857142D02*
X107635714Y-93904761D01*
X107492857Y-93952380D01*
X107397619Y-93952380D01*
X107254761Y-93904761D01*
X107159523Y-93809523D01*
X107111904Y-93714285D01*
X107064285Y-93523809D01*
X107064285Y-93380952D01*
X107111904Y-93190476D01*
X107159523Y-93095238D01*
X107254761Y-93000000D01*
X107397619Y-92952380D01*
X107492857Y-92952380D01*
X107635714Y-93000000D01*
X107683333Y-93047619D01*
X108635714Y-93952380D02*
X108064285Y-93952380D01*
X108350000Y-93952380D02*
X108350000Y-92952380D01*
X108254761Y-93095238D01*
X108159523Y-93190476D01*
X108064285Y-93238095D01*
X115283333Y-106157142D02*
X115235714Y-106204761D01*
X115092857Y-106252380D01*
X114997619Y-106252380D01*
X114854761Y-106204761D01*
X114759523Y-106109523D01*
X114711904Y-106014285D01*
X114664285Y-105823809D01*
X114664285Y-105680952D01*
X114711904Y-105490476D01*
X114759523Y-105395238D01*
X114854761Y-105300000D01*
X114997619Y-105252380D01*
X115092857Y-105252380D01*
X115235714Y-105300000D01*
X115283333Y-105347619D01*
X115664285Y-105347619D02*
X115711904Y-105300000D01*
X115807142Y-105252380D01*
X116045238Y-105252380D01*
X116140476Y-105300000D01*
X116188095Y-105347619D01*
X116235714Y-105442857D01*
X116235714Y-105538095D01*
X116188095Y-105680952D01*
X115616666Y-106252380D01*
X116235714Y-106252380D01*
X121533333Y-98107142D02*
X121485714Y-98154761D01*
X121342857Y-98202380D01*
X121247619Y-98202380D01*
X121104761Y-98154761D01*
X121009523Y-98059523D01*
X120961904Y-97964285D01*
X120914285Y-97773809D01*
X120914285Y-97630952D01*
X120961904Y-97440476D01*
X121009523Y-97345238D01*
X121104761Y-97250000D01*
X121247619Y-97202380D01*
X121342857Y-97202380D01*
X121485714Y-97250000D01*
X121533333Y-97297619D01*
X121866666Y-97202380D02*
X122485714Y-97202380D01*
X122152380Y-97583333D01*
X122295238Y-97583333D01*
X122390476Y-97630952D01*
X122438095Y-97678571D01*
X122485714Y-97773809D01*
X122485714Y-98011904D01*
X122438095Y-98107142D01*
X122390476Y-98154761D01*
X122295238Y-98202380D01*
X122009523Y-98202380D01*
X121914285Y-98154761D01*
X121866666Y-98107142D01*
X117011904Y-92002380D02*
X117011904Y-91002380D01*
X117250000Y-91002380D01*
X117392857Y-91050000D01*
X117488095Y-91145238D01*
X117535714Y-91240476D01*
X117583333Y-91430952D01*
X117583333Y-91573809D01*
X117535714Y-91764285D01*
X117488095Y-91859523D01*
X117392857Y-91954761D01*
X117250000Y-92002380D01*
X117011904Y-92002380D01*
X118535714Y-92002380D02*
X117964285Y-92002380D01*
X118250000Y-92002380D02*
X118250000Y-91002380D01*
X118154761Y-91145238D01*
X118059523Y-91240476D01*
X117964285Y-91288095D01*
X123216666Y-92852380D02*
X123216666Y-93566666D01*
X123169047Y-93709523D01*
X123073809Y-93804761D01*
X122930952Y-93852380D01*
X122835714Y-93852380D01*
X124216666Y-93852380D02*
X123645238Y-93852380D01*
X123930952Y-93852380D02*
X123930952Y-92852380D01*
X123835714Y-92995238D01*
X123740476Y-93090476D01*
X123645238Y-93138095D01*
X123107142Y-107452380D02*
X122630952Y-107452380D01*
X122630952Y-106452380D01*
X123392857Y-107404761D02*
X123535714Y-107452380D01*
X123773809Y-107452380D01*
X123869047Y-107404761D01*
X123916666Y-107357142D01*
X123964285Y-107261904D01*
X123964285Y-107166666D01*
X123916666Y-107071428D01*
X123869047Y-107023809D01*
X123773809Y-106976190D01*
X123583333Y-106928571D01*
X123488095Y-106880952D01*
X123440476Y-106833333D01*
X123392857Y-106738095D01*
X123392857Y-106642857D01*
X123440476Y-106547619D01*
X123488095Y-106500000D01*
X123583333Y-106452380D01*
X123821428Y-106452380D01*
X123964285Y-106500000D01*
X124916666Y-107452380D02*
X124345238Y-107452380D01*
X124630952Y-107452380D02*
X124630952Y-106452380D01*
X124535714Y-106595238D01*
X124440476Y-106690476D01*
X124345238Y-106738095D01*
X126619047Y-105621428D02*
X127380952Y-105621428D01*
X127000000Y-106002380D02*
X127000000Y-105240476D01*
X113633333Y-91952380D02*
X113300000Y-91476190D01*
X113061904Y-91952380D02*
X113061904Y-90952380D01*
X113442857Y-90952380D01*
X113538095Y-91000000D01*
X113585714Y-91047619D01*
X113633333Y-91142857D01*
X113633333Y-91285714D01*
X113585714Y-91380952D01*
X113538095Y-91428571D01*
X113442857Y-91476190D01*
X113061904Y-91476190D01*
X114585714Y-91952380D02*
X114014285Y-91952380D01*
X114300000Y-91952380D02*
X114300000Y-90952380D01*
X114204761Y-91095238D01*
X114109523Y-91190476D01*
X114014285Y-91238095D01*
X121904761Y-113452380D02*
X121571428Y-112976190D01*
X121333333Y-113452380D02*
X121333333Y-112452380D01*
X121714285Y-112452380D01*
X121809523Y-112500000D01*
X121857142Y-112547619D01*
X121904761Y-112642857D01*
X121904761Y-112785714D01*
X121857142Y-112880952D01*
X121809523Y-112928571D01*
X121714285Y-112976190D01*
X121333333Y-112976190D01*
X122190476Y-112452380D02*
X122523809Y-113452380D01*
X122857142Y-112452380D01*
X123714285Y-113452380D02*
X123142857Y-113452380D01*
X123428571Y-113452380D02*
X123428571Y-112452380D01*
X123333333Y-112595238D01*
X123238095Y-112690476D01*
X123142857Y-112738095D01*
X116988095Y-97202380D02*
X116988095Y-98011904D01*
X117035714Y-98107142D01*
X117083333Y-98154761D01*
X117178571Y-98202380D01*
X117369047Y-98202380D01*
X117464285Y-98154761D01*
X117511904Y-98107142D01*
X117559523Y-98011904D01*
X117559523Y-97202380D01*
X118559523Y-98202380D02*
X117988095Y-98202380D01*
X118273809Y-98202380D02*
X118273809Y-97202380D01*
X118178571Y-97345238D01*
X118083333Y-97440476D01*
X117988095Y-97488095D01*
M02*
