G04 #@! TF.GenerationSoftware,KiCad,Pcbnew,5.1.0*
G04 #@! TF.CreationDate,2019-04-07T16:46:14+09:00*
G04 #@! TF.ProjectId,micro_cmos_guy,6d696372-6f5f-4636-9d6f-735f6775792e,rev?*
G04 #@! TF.SameCoordinates,Original*
G04 #@! TF.FileFunction,Copper,L1,Top*
G04 #@! TF.FilePolarity,Positive*
%FSLAX46Y46*%
G04 Gerber Fmt 4.6, Leading zero omitted, Abs format (unit mm)*
G04 Created by KiCad (PCBNEW 5.1.0) date 2019-04-07 16:46:14*
%MOMM*%
%LPD*%
G04 APERTURE LIST*
%ADD10R,1.600000X2.000000*%
%ADD11R,1.200000X0.750000*%
%ADD12R,0.750000X1.200000*%
%ADD13R,0.900000X1.200000*%
%ADD14R,1.200000X2.400000*%
%ADD15C,1.000000*%
%ADD16R,0.300000X1.600000*%
%ADD17C,0.800000*%
%ADD18C,0.400000*%
%ADD19C,1.000000*%
%ADD20C,0.250000*%
%ADD21C,0.254000*%
G04 APERTURE END LIST*
D10*
X110000000Y-97250000D03*
X110000000Y-93250000D03*
D11*
X117550000Y-105750000D03*
X119450000Y-105750000D03*
D12*
X121750000Y-101500000D03*
X121750000Y-99600000D03*
D13*
X117750000Y-93150000D03*
X117750000Y-95350000D03*
D14*
X126250000Y-97450000D03*
X126250000Y-90550000D03*
X130250000Y-92250000D03*
D15*
X127000000Y-104250000D03*
X129900000Y-104250000D03*
D13*
X113750000Y-95450000D03*
X113750000Y-93250000D03*
D15*
X126000000Y-112500000D03*
X128500000Y-110000000D03*
X131000000Y-112500000D03*
D16*
X117775000Y-99550000D03*
X118425000Y-99550000D03*
X119075000Y-99550000D03*
X119725000Y-99550000D03*
X119725000Y-102950000D03*
X119075000Y-102950000D03*
X118425000Y-102950000D03*
X117775000Y-102950000D03*
D17*
X108700000Y-90350000D03*
X109950000Y-91400000D03*
X121750000Y-98250000D03*
X117800000Y-97750000D03*
X108250000Y-101000000D03*
X120900000Y-105750000D03*
X120900000Y-103800000D03*
X124900000Y-100500000D03*
X124100000Y-103100000D03*
D18*
X126500001Y-103750001D02*
X126450001Y-103750001D01*
X127000000Y-104250000D02*
X126500001Y-103750001D01*
X126450001Y-103750001D02*
X123500000Y-100800000D01*
X123500000Y-100800000D02*
X123500000Y-98600000D01*
X123500000Y-98600000D02*
X122200000Y-97300000D01*
X121325000Y-97300000D02*
X119900000Y-98725000D01*
X122200000Y-97300000D02*
X121325000Y-97300000D01*
X119900000Y-99375000D02*
X119725000Y-99550000D01*
X119900000Y-98725000D02*
X119900000Y-99375000D01*
D19*
X108700000Y-90350000D02*
X108900000Y-90350000D01*
X108900000Y-90350000D02*
X109950000Y-91400000D01*
X109950000Y-93200000D02*
X110000000Y-93250000D01*
X109950000Y-91400000D02*
X109950000Y-93200000D01*
D20*
X121750000Y-99600000D02*
X121750000Y-98250000D01*
X117800000Y-99525000D02*
X117775000Y-99550000D01*
X117800000Y-97750000D02*
X117800000Y-99525000D01*
D18*
X111200000Y-93250000D02*
X112100000Y-92350000D01*
X110000000Y-93250000D02*
X111200000Y-93250000D01*
X112100000Y-92350000D02*
X112100000Y-91600000D01*
X112100000Y-91600000D02*
X112900000Y-90800000D01*
X120026458Y-97750000D02*
X117800000Y-97750000D01*
D19*
X108250000Y-99000000D02*
X110000000Y-97250000D01*
X108250000Y-101000000D02*
X108250000Y-99000000D01*
D20*
X117000000Y-95350000D02*
X117750000Y-95350000D01*
X110000000Y-97250000D02*
X115100000Y-97250000D01*
X115100000Y-97250000D02*
X117000000Y-95350000D01*
X120125000Y-102950000D02*
X119725000Y-102950000D01*
X121750000Y-102350000D02*
X121150000Y-102950000D01*
X121750000Y-101500000D02*
X121750000Y-102350000D01*
X119450000Y-105750000D02*
X120900000Y-105750000D01*
X120900000Y-103000000D02*
X120950000Y-102950000D01*
X120900000Y-103800000D02*
X120900000Y-103000000D01*
X121150000Y-102950000D02*
X120950000Y-102950000D01*
X120950000Y-102950000D02*
X120125000Y-102950000D01*
X119075000Y-99550000D02*
X118425000Y-99550000D01*
X131000000Y-113207106D02*
X130307106Y-113900000D01*
X131000000Y-112500000D02*
X131000000Y-113207106D01*
X130307106Y-113900000D02*
X123200000Y-113900000D01*
X123200000Y-113900000D02*
X120200000Y-110900000D01*
X120200000Y-110900000D02*
X119400000Y-110900000D01*
X119400000Y-110900000D02*
X116200000Y-107700000D01*
X116200000Y-107700000D02*
X116200000Y-102100000D01*
X116875000Y-101425000D02*
X119075000Y-101425000D01*
X116200000Y-102100000D02*
X116875000Y-101425000D01*
X119075000Y-102950000D02*
X119075000Y-101425000D01*
X119075000Y-101425000D02*
X119075000Y-99550000D01*
X117775000Y-104900000D02*
X117775000Y-102950000D01*
X117550000Y-105750000D02*
X117550000Y-105125000D01*
X117550000Y-105125000D02*
X117775000Y-104900000D01*
X128500000Y-110000000D02*
X120000000Y-110000000D01*
X117550000Y-107550000D02*
X117550000Y-105750000D01*
X120000000Y-110000000D02*
X117550000Y-107550000D01*
X113750000Y-95450000D02*
X115150000Y-95450000D01*
X115150000Y-95450000D02*
X116200000Y-94400000D01*
X116200000Y-94400000D02*
X116200000Y-93200000D01*
X116250000Y-93150000D02*
X117750000Y-93150000D01*
X116200000Y-93200000D02*
X116250000Y-93150000D01*
D18*
X126250000Y-95250000D02*
X126250000Y-97450000D01*
X130250000Y-92250000D02*
X129250000Y-92250000D01*
X129250000Y-92250000D02*
X126250000Y-95250000D01*
X126250000Y-97450000D02*
X126250000Y-99150000D01*
X126250000Y-99150000D02*
X124900000Y-100500000D01*
X123700001Y-103499999D02*
X123200001Y-103499999D01*
X124100000Y-103100000D02*
X123700001Y-103499999D01*
X123200001Y-103499999D02*
X122100000Y-104600000D01*
X118425000Y-104150000D02*
X118425000Y-102950000D01*
X118875000Y-104600000D02*
X118425000Y-104150000D01*
X122100000Y-104600000D02*
X118875000Y-104600000D01*
D21*
G36*
X131540001Y-111495764D02*
G01*
X131537624Y-111494176D01*
X131331067Y-111408617D01*
X131111788Y-111365000D01*
X130888212Y-111365000D01*
X130668933Y-111408617D01*
X130462376Y-111494176D01*
X130276480Y-111618388D01*
X130118388Y-111776480D01*
X129994176Y-111962376D01*
X129908617Y-112168933D01*
X129865000Y-112388212D01*
X129865000Y-112611788D01*
X129908617Y-112831067D01*
X129994176Y-113037624D01*
X130034433Y-113097872D01*
X129992305Y-113140000D01*
X126937418Y-113140000D01*
X127005824Y-113037624D01*
X127091383Y-112831067D01*
X127135000Y-112611788D01*
X127135000Y-112388212D01*
X127091383Y-112168933D01*
X127005824Y-111962376D01*
X126881612Y-111776480D01*
X126723520Y-111618388D01*
X126537624Y-111494176D01*
X126331067Y-111408617D01*
X126111788Y-111365000D01*
X125888212Y-111365000D01*
X125668933Y-111408617D01*
X125462376Y-111494176D01*
X125276480Y-111618388D01*
X125118388Y-111776480D01*
X124994176Y-111962376D01*
X124908617Y-112168933D01*
X124865000Y-112388212D01*
X124865000Y-112611788D01*
X124908617Y-112831067D01*
X124994176Y-113037624D01*
X125062582Y-113140000D01*
X123514802Y-113140000D01*
X121134801Y-110760000D01*
X127654868Y-110760000D01*
X127776480Y-110881612D01*
X127962376Y-111005824D01*
X128168933Y-111091383D01*
X128388212Y-111135000D01*
X128611788Y-111135000D01*
X128831067Y-111091383D01*
X129037624Y-111005824D01*
X129223520Y-110881612D01*
X129381612Y-110723520D01*
X129505824Y-110537624D01*
X129591383Y-110331067D01*
X129635000Y-110111788D01*
X129635000Y-109888212D01*
X129591383Y-109668933D01*
X129505824Y-109462376D01*
X129381612Y-109276480D01*
X129223520Y-109118388D01*
X129037624Y-108994176D01*
X128831067Y-108908617D01*
X128611788Y-108865000D01*
X128388212Y-108865000D01*
X128168933Y-108908617D01*
X127962376Y-108994176D01*
X127776480Y-109118388D01*
X127654868Y-109240000D01*
X120314802Y-109240000D01*
X118310000Y-107235199D01*
X118310000Y-106740038D01*
X118394180Y-106714502D01*
X118500000Y-106657939D01*
X118605820Y-106714502D01*
X118725518Y-106750812D01*
X118850000Y-106763072D01*
X120050000Y-106763072D01*
X120174482Y-106750812D01*
X120294180Y-106714502D01*
X120397709Y-106659164D01*
X120409744Y-106667205D01*
X120598102Y-106745226D01*
X120798061Y-106785000D01*
X121001939Y-106785000D01*
X121201898Y-106745226D01*
X121390256Y-106667205D01*
X121559774Y-106553937D01*
X121703937Y-106409774D01*
X121817205Y-106240256D01*
X121895226Y-106051898D01*
X121935000Y-105851939D01*
X121935000Y-105648061D01*
X121895226Y-105448102D01*
X121889799Y-105435000D01*
X122058982Y-105435000D01*
X122100000Y-105439040D01*
X122141018Y-105435000D01*
X122141019Y-105435000D01*
X122263689Y-105422918D01*
X122421087Y-105375172D01*
X122566146Y-105297636D01*
X122693291Y-105193291D01*
X122719446Y-105161421D01*
X123545869Y-104334999D01*
X123658983Y-104334999D01*
X123700001Y-104339039D01*
X123741019Y-104334999D01*
X123741020Y-104334999D01*
X123863690Y-104322917D01*
X124021088Y-104275171D01*
X124166147Y-104197635D01*
X124255434Y-104124359D01*
X124401898Y-104095226D01*
X124590256Y-104017205D01*
X124759774Y-103903937D01*
X124903937Y-103759774D01*
X125017205Y-103590256D01*
X125044205Y-103525073D01*
X125830560Y-104311428D01*
X125856710Y-104343292D01*
X125865000Y-104350095D01*
X125865000Y-104361788D01*
X125908617Y-104581067D01*
X125994176Y-104787624D01*
X126118388Y-104973520D01*
X126276480Y-105131612D01*
X126462376Y-105255824D01*
X126668933Y-105341383D01*
X126888212Y-105385000D01*
X127111788Y-105385000D01*
X127331067Y-105341383D01*
X127537624Y-105255824D01*
X127723520Y-105131612D01*
X127881612Y-104973520D01*
X128005824Y-104787624D01*
X128091383Y-104581067D01*
X128135000Y-104361788D01*
X128135000Y-104138212D01*
X128765000Y-104138212D01*
X128765000Y-104361788D01*
X128808617Y-104581067D01*
X128894176Y-104787624D01*
X129018388Y-104973520D01*
X129176480Y-105131612D01*
X129362376Y-105255824D01*
X129568933Y-105341383D01*
X129788212Y-105385000D01*
X130011788Y-105385000D01*
X130231067Y-105341383D01*
X130437624Y-105255824D01*
X130623520Y-105131612D01*
X130781612Y-104973520D01*
X130905824Y-104787624D01*
X130991383Y-104581067D01*
X131035000Y-104361788D01*
X131035000Y-104138212D01*
X130991383Y-103918933D01*
X130905824Y-103712376D01*
X130781612Y-103526480D01*
X130623520Y-103368388D01*
X130437624Y-103244176D01*
X130231067Y-103158617D01*
X130011788Y-103115000D01*
X129788212Y-103115000D01*
X129568933Y-103158617D01*
X129362376Y-103244176D01*
X129176480Y-103368388D01*
X129018388Y-103526480D01*
X128894176Y-103712376D01*
X128808617Y-103918933D01*
X128765000Y-104138212D01*
X128135000Y-104138212D01*
X128091383Y-103918933D01*
X128005824Y-103712376D01*
X127881612Y-103526480D01*
X127723520Y-103368388D01*
X127537624Y-103244176D01*
X127331067Y-103158617D01*
X127111788Y-103115000D01*
X127042468Y-103115000D01*
X126966147Y-103052365D01*
X126895438Y-103014570D01*
X125325073Y-101444205D01*
X125390256Y-101417205D01*
X125559774Y-101303937D01*
X125703937Y-101159774D01*
X125817205Y-100990256D01*
X125895226Y-100801898D01*
X125924093Y-100656775D01*
X126811426Y-99769442D01*
X126843291Y-99743291D01*
X126947636Y-99616146D01*
X127025172Y-99471087D01*
X127072918Y-99313689D01*
X127079795Y-99243866D01*
X127094180Y-99239502D01*
X127204494Y-99180537D01*
X127301185Y-99101185D01*
X127380537Y-99004494D01*
X127439502Y-98894180D01*
X127475812Y-98774482D01*
X127488072Y-98650000D01*
X127488072Y-97022494D01*
X127558353Y-97092775D01*
X127736060Y-97211515D01*
X127933517Y-97293304D01*
X128143137Y-97335000D01*
X128356863Y-97335000D01*
X128566483Y-97293304D01*
X128763940Y-97211515D01*
X128941647Y-97092775D01*
X129092775Y-96941647D01*
X129211515Y-96763940D01*
X129293304Y-96566483D01*
X129335000Y-96356863D01*
X129335000Y-96143137D01*
X129293304Y-95933517D01*
X129211515Y-95736060D01*
X129092775Y-95558353D01*
X128941647Y-95407225D01*
X128763940Y-95288485D01*
X128566483Y-95206696D01*
X128356863Y-95165000D01*
X128143137Y-95165000D01*
X127933517Y-95206696D01*
X127736060Y-95288485D01*
X127558353Y-95407225D01*
X127407225Y-95558353D01*
X127288485Y-95736060D01*
X127272308Y-95775116D01*
X127204494Y-95719463D01*
X127094180Y-95660498D01*
X127085000Y-95657713D01*
X127085000Y-95595867D01*
X129043319Y-93637549D01*
X129060498Y-93694180D01*
X129119463Y-93804494D01*
X129198815Y-93901185D01*
X129295506Y-93980537D01*
X129405820Y-94039502D01*
X129525518Y-94075812D01*
X129650000Y-94088072D01*
X130850000Y-94088072D01*
X130974482Y-94075812D01*
X131094180Y-94039502D01*
X131204494Y-93980537D01*
X131301185Y-93901185D01*
X131380537Y-93804494D01*
X131439502Y-93694180D01*
X131475812Y-93574482D01*
X131488072Y-93450000D01*
X131488072Y-91050000D01*
X131475812Y-90925518D01*
X131439502Y-90805820D01*
X131380537Y-90695506D01*
X131301185Y-90598815D01*
X131204494Y-90519463D01*
X131094180Y-90460498D01*
X130974482Y-90424188D01*
X130850000Y-90411928D01*
X129650000Y-90411928D01*
X129525518Y-90424188D01*
X129405820Y-90460498D01*
X129335000Y-90498353D01*
X129335000Y-90443137D01*
X129293304Y-90233517D01*
X129211515Y-90036060D01*
X129092775Y-89858353D01*
X128941647Y-89707225D01*
X128763940Y-89588485D01*
X128566483Y-89506696D01*
X128356863Y-89465000D01*
X128143137Y-89465000D01*
X127933517Y-89506696D01*
X127736060Y-89588485D01*
X127558353Y-89707225D01*
X127488072Y-89777506D01*
X127488072Y-89350000D01*
X127475812Y-89225518D01*
X127439502Y-89105820D01*
X127380537Y-88995506D01*
X127301185Y-88898815D01*
X127204494Y-88819463D01*
X127094180Y-88760498D01*
X126974482Y-88724188D01*
X126850000Y-88711928D01*
X125650000Y-88711928D01*
X125525518Y-88724188D01*
X125405820Y-88760498D01*
X125295506Y-88819463D01*
X125198815Y-88898815D01*
X125119463Y-88995506D01*
X125060498Y-89105820D01*
X125024188Y-89225518D01*
X125011928Y-89350000D01*
X125011928Y-91750000D01*
X125024188Y-91874482D01*
X125060498Y-91994180D01*
X125119463Y-92104494D01*
X125198815Y-92201185D01*
X125295506Y-92280537D01*
X125405820Y-92339502D01*
X125525518Y-92375812D01*
X125650000Y-92388072D01*
X126850000Y-92388072D01*
X126974482Y-92375812D01*
X127094180Y-92339502D01*
X127204494Y-92280537D01*
X127301185Y-92201185D01*
X127380537Y-92104494D01*
X127439502Y-91994180D01*
X127475812Y-91874482D01*
X127488072Y-91750000D01*
X127488072Y-91322494D01*
X127558353Y-91392775D01*
X127736060Y-91511515D01*
X127933517Y-91593304D01*
X128143137Y-91635000D01*
X128356863Y-91635000D01*
X128566483Y-91593304D01*
X128763940Y-91511515D01*
X128941647Y-91392775D01*
X129011928Y-91322494D01*
X129011928Y-91449646D01*
X128928913Y-91474828D01*
X128783854Y-91552364D01*
X128707532Y-91615000D01*
X128656709Y-91656709D01*
X128630563Y-91688568D01*
X125688579Y-94630554D01*
X125656709Y-94656709D01*
X125580148Y-94750000D01*
X125552364Y-94783855D01*
X125474828Y-94928914D01*
X125427082Y-95086312D01*
X125410960Y-95250000D01*
X125415000Y-95291019D01*
X125415000Y-95657713D01*
X125405820Y-95660498D01*
X125295506Y-95719463D01*
X125198815Y-95798815D01*
X125119463Y-95895506D01*
X125060498Y-96005820D01*
X125024188Y-96125518D01*
X125011928Y-96250000D01*
X125011928Y-98650000D01*
X125024188Y-98774482D01*
X125060498Y-98894180D01*
X125119463Y-99004494D01*
X125162364Y-99056769D01*
X124743225Y-99475907D01*
X124598102Y-99504774D01*
X124409744Y-99582795D01*
X124335000Y-99632737D01*
X124335000Y-98641018D01*
X124339040Y-98600000D01*
X124324499Y-98452364D01*
X124322918Y-98436311D01*
X124275172Y-98278913D01*
X124197636Y-98133854D01*
X124130624Y-98052199D01*
X124119439Y-98038570D01*
X124119437Y-98038568D01*
X124093291Y-98006709D01*
X124061432Y-97980563D01*
X122819446Y-96738578D01*
X122793291Y-96706709D01*
X122666146Y-96602364D01*
X122521087Y-96524828D01*
X122363689Y-96477082D01*
X122241019Y-96465000D01*
X122241018Y-96465000D01*
X122200000Y-96460960D01*
X122158982Y-96465000D01*
X121366007Y-96465000D01*
X121324999Y-96460961D01*
X121283991Y-96465000D01*
X121283981Y-96465000D01*
X121161311Y-96477082D01*
X121003913Y-96524828D01*
X120858854Y-96602364D01*
X120731709Y-96706709D01*
X120705558Y-96738574D01*
X119338579Y-98105554D01*
X119319475Y-98121233D01*
X119225000Y-98111928D01*
X118925000Y-98111928D01*
X118800518Y-98124188D01*
X118750000Y-98139512D01*
X118699482Y-98124188D01*
X118575000Y-98111928D01*
X118275000Y-98111928D01*
X118150518Y-98124188D01*
X118100341Y-98139409D01*
X118058358Y-98126020D01*
X117956750Y-98115000D01*
X117798000Y-98273750D01*
X117798000Y-98330271D01*
X117752000Y-98386322D01*
X117752000Y-98273750D01*
X117593250Y-98115000D01*
X117491642Y-98126020D01*
X117372472Y-98164026D01*
X117263006Y-98224551D01*
X117167452Y-98305269D01*
X117089481Y-98403078D01*
X117032089Y-98514219D01*
X116997483Y-98634420D01*
X116986992Y-98759063D01*
X116990000Y-99264250D01*
X117148750Y-99423000D01*
X117636928Y-99423000D01*
X117636928Y-99677000D01*
X117148750Y-99677000D01*
X116990000Y-99835750D01*
X116986992Y-100340937D01*
X116997483Y-100465580D01*
X117032089Y-100585781D01*
X117072997Y-100665000D01*
X116912322Y-100665000D01*
X116874999Y-100661324D01*
X116837676Y-100665000D01*
X116837667Y-100665000D01*
X116726014Y-100675997D01*
X116582753Y-100719454D01*
X116450723Y-100790026D01*
X116388590Y-100841018D01*
X116334999Y-100884999D01*
X116311200Y-100913998D01*
X115688998Y-101536201D01*
X115660000Y-101559999D01*
X115636202Y-101588997D01*
X115636201Y-101588998D01*
X115565026Y-101675724D01*
X115494454Y-101807754D01*
X115481859Y-101849276D01*
X115450998Y-101951014D01*
X115446190Y-101999826D01*
X115436324Y-102100000D01*
X115440001Y-102137332D01*
X115440000Y-107662677D01*
X115436324Y-107700000D01*
X115440000Y-107737322D01*
X115440000Y-107737332D01*
X115450997Y-107848985D01*
X115486541Y-107966159D01*
X115494454Y-107992246D01*
X115565026Y-108124276D01*
X115594675Y-108160403D01*
X115659999Y-108240001D01*
X115689003Y-108263804D01*
X118836205Y-111411008D01*
X118859999Y-111440001D01*
X118888992Y-111463795D01*
X118888996Y-111463799D01*
X118926011Y-111494176D01*
X118975724Y-111534974D01*
X119107753Y-111605546D01*
X119251014Y-111649003D01*
X119362667Y-111660000D01*
X119362676Y-111660000D01*
X119399999Y-111663676D01*
X119437322Y-111660000D01*
X119885199Y-111660000D01*
X122636201Y-114411003D01*
X122659999Y-114440001D01*
X122775724Y-114534974D01*
X122907753Y-114605546D01*
X123051014Y-114649003D01*
X123162667Y-114660000D01*
X123162675Y-114660000D01*
X123200000Y-114663676D01*
X123237325Y-114660000D01*
X130269784Y-114660000D01*
X130307106Y-114663676D01*
X130344428Y-114660000D01*
X130344439Y-114660000D01*
X130456092Y-114649003D01*
X130599353Y-114605546D01*
X130731382Y-114534974D01*
X130847107Y-114440001D01*
X130870909Y-114410998D01*
X131511002Y-113770905D01*
X131540001Y-113747107D01*
X131540001Y-116067572D01*
X131540000Y-116067582D01*
X131540000Y-116290000D01*
X123449382Y-116290000D01*
X111088104Y-116282971D01*
X109920289Y-115315150D01*
X108692651Y-114102417D01*
X107575377Y-112787296D01*
X106576983Y-111379816D01*
X105705046Y-109890656D01*
X104966224Y-108331181D01*
X104366132Y-106713255D01*
X103909331Y-105049173D01*
X103599304Y-103351618D01*
X103438409Y-101633498D01*
X103427870Y-99907891D01*
X103501715Y-99000000D01*
X107109509Y-99000000D01*
X107115001Y-99055761D01*
X107115000Y-101055751D01*
X107131423Y-101222498D01*
X107196324Y-101436446D01*
X107301716Y-101633623D01*
X107443551Y-101806449D01*
X107616377Y-101948284D01*
X107813553Y-102053676D01*
X108027501Y-102118577D01*
X108250000Y-102140491D01*
X108472498Y-102118577D01*
X108686446Y-102053676D01*
X108883623Y-101948284D01*
X109056449Y-101806449D01*
X109198284Y-101633623D01*
X109303676Y-101436447D01*
X109368577Y-101222499D01*
X109385000Y-101055752D01*
X109385000Y-99470131D01*
X109967060Y-98888072D01*
X110800000Y-98888072D01*
X110924482Y-98875812D01*
X111044180Y-98839502D01*
X111154494Y-98780537D01*
X111251185Y-98701185D01*
X111330537Y-98604494D01*
X111389502Y-98494180D01*
X111425812Y-98374482D01*
X111438072Y-98250000D01*
X111438072Y-98010000D01*
X115062678Y-98010000D01*
X115100000Y-98013676D01*
X115137322Y-98010000D01*
X115137333Y-98010000D01*
X115248986Y-97999003D01*
X115392247Y-97955546D01*
X115524276Y-97884974D01*
X115640001Y-97790001D01*
X115663804Y-97760997D01*
X116944824Y-96479977D01*
X116945506Y-96480537D01*
X117055820Y-96539502D01*
X117175518Y-96575812D01*
X117300000Y-96588072D01*
X118200000Y-96588072D01*
X118324482Y-96575812D01*
X118444180Y-96539502D01*
X118554494Y-96480537D01*
X118651185Y-96401185D01*
X118730537Y-96304494D01*
X118789502Y-96194180D01*
X118825812Y-96074482D01*
X118838072Y-95950000D01*
X118838072Y-94750000D01*
X118825812Y-94625518D01*
X118789502Y-94505820D01*
X118730537Y-94395506D01*
X118651185Y-94298815D01*
X118591704Y-94250000D01*
X118651185Y-94201185D01*
X118730537Y-94104494D01*
X118789502Y-93994180D01*
X118825812Y-93874482D01*
X118838072Y-93750000D01*
X118838072Y-92550000D01*
X118825812Y-92425518D01*
X118789502Y-92305820D01*
X118730537Y-92195506D01*
X118651185Y-92098815D01*
X118554494Y-92019463D01*
X118444180Y-91960498D01*
X118324482Y-91924188D01*
X118200000Y-91911928D01*
X117300000Y-91911928D01*
X117175518Y-91924188D01*
X117055820Y-91960498D01*
X116945506Y-92019463D01*
X116848815Y-92098815D01*
X116769463Y-92195506D01*
X116710498Y-92305820D01*
X116684962Y-92390000D01*
X116287325Y-92390000D01*
X116250000Y-92386324D01*
X116212675Y-92390000D01*
X116212667Y-92390000D01*
X116101014Y-92400997D01*
X115957753Y-92444454D01*
X115825724Y-92515026D01*
X115709999Y-92609999D01*
X115687459Y-92637464D01*
X115660000Y-92659999D01*
X115636202Y-92688997D01*
X115636201Y-92688998D01*
X115565026Y-92775724D01*
X115494454Y-92907754D01*
X115450998Y-93051015D01*
X115436324Y-93200000D01*
X115440001Y-93237332D01*
X115440000Y-94085198D01*
X114835199Y-94690000D01*
X114815038Y-94690000D01*
X114789502Y-94605820D01*
X114730537Y-94495506D01*
X114651185Y-94398815D01*
X114591704Y-94350000D01*
X114651185Y-94301185D01*
X114730537Y-94204494D01*
X114789502Y-94094180D01*
X114825812Y-93974482D01*
X114838072Y-93850000D01*
X114835000Y-93535750D01*
X114676250Y-93377000D01*
X113877000Y-93377000D01*
X113877000Y-93397000D01*
X113623000Y-93397000D01*
X113623000Y-93377000D01*
X112823750Y-93377000D01*
X112665000Y-93535750D01*
X112661928Y-93850000D01*
X112674188Y-93974482D01*
X112710498Y-94094180D01*
X112769463Y-94204494D01*
X112848815Y-94301185D01*
X112908296Y-94350000D01*
X112848815Y-94398815D01*
X112769463Y-94495506D01*
X112710498Y-94605820D01*
X112674188Y-94725518D01*
X112661928Y-94850000D01*
X112661928Y-96050000D01*
X112674188Y-96174482D01*
X112710498Y-96294180D01*
X112769463Y-96404494D01*
X112839636Y-96490000D01*
X111438072Y-96490000D01*
X111438072Y-96250000D01*
X111425812Y-96125518D01*
X111389502Y-96005820D01*
X111330537Y-95895506D01*
X111251185Y-95798815D01*
X111154494Y-95719463D01*
X111044180Y-95660498D01*
X110924482Y-95624188D01*
X110800000Y-95611928D01*
X109200000Y-95611928D01*
X109075518Y-95624188D01*
X108955820Y-95660498D01*
X108845506Y-95719463D01*
X108748815Y-95798815D01*
X108669463Y-95895506D01*
X108610498Y-96005820D01*
X108574188Y-96125518D01*
X108561928Y-96250000D01*
X108561928Y-97082940D01*
X107486860Y-98158009D01*
X107443552Y-98193551D01*
X107301717Y-98366377D01*
X107278134Y-98410498D01*
X107196324Y-98563554D01*
X107131423Y-98777502D01*
X107109509Y-99000000D01*
X103501715Y-99000000D01*
X103567768Y-98187928D01*
X103857037Y-96486708D01*
X104293478Y-94817171D01*
X104495997Y-94250000D01*
X108561928Y-94250000D01*
X108574188Y-94374482D01*
X108610498Y-94494180D01*
X108669463Y-94604494D01*
X108748815Y-94701185D01*
X108845506Y-94780537D01*
X108955820Y-94839502D01*
X109075518Y-94875812D01*
X109200000Y-94888072D01*
X109714250Y-94885000D01*
X109873000Y-94726250D01*
X109873000Y-93377000D01*
X110127000Y-93377000D01*
X110127000Y-94726250D01*
X110285750Y-94885000D01*
X110800000Y-94888072D01*
X110924482Y-94875812D01*
X111044180Y-94839502D01*
X111154494Y-94780537D01*
X111251185Y-94701185D01*
X111330537Y-94604494D01*
X111389502Y-94494180D01*
X111425812Y-94374482D01*
X111438072Y-94250000D01*
X111435000Y-93535750D01*
X111276250Y-93377000D01*
X110127000Y-93377000D01*
X109873000Y-93377000D01*
X108723750Y-93377000D01*
X108565000Y-93535750D01*
X108561928Y-94250000D01*
X104495997Y-94250000D01*
X104873764Y-93192034D01*
X105306056Y-92250000D01*
X108561928Y-92250000D01*
X108565000Y-92964250D01*
X108723750Y-93123000D01*
X109873000Y-93123000D01*
X109873000Y-91773750D01*
X110127000Y-91773750D01*
X110127000Y-93123000D01*
X111276250Y-93123000D01*
X111435000Y-92964250D01*
X111436351Y-92650000D01*
X112661928Y-92650000D01*
X112665000Y-92964250D01*
X112823750Y-93123000D01*
X113623000Y-93123000D01*
X113623000Y-92173750D01*
X113877000Y-92173750D01*
X113877000Y-93123000D01*
X114676250Y-93123000D01*
X114835000Y-92964250D01*
X114838072Y-92650000D01*
X114825812Y-92525518D01*
X114789502Y-92405820D01*
X114730537Y-92295506D01*
X114651185Y-92198815D01*
X114554494Y-92119463D01*
X114444180Y-92060498D01*
X114324482Y-92024188D01*
X114200000Y-92011928D01*
X114035750Y-92015000D01*
X113877000Y-92173750D01*
X113623000Y-92173750D01*
X113464250Y-92015000D01*
X113300000Y-92011928D01*
X113175518Y-92024188D01*
X113055820Y-92060498D01*
X112945506Y-92119463D01*
X112848815Y-92198815D01*
X112769463Y-92295506D01*
X112710498Y-92405820D01*
X112674188Y-92525518D01*
X112661928Y-92650000D01*
X111436351Y-92650000D01*
X111438072Y-92250000D01*
X111425812Y-92125518D01*
X111389502Y-92005820D01*
X111330537Y-91895506D01*
X111251185Y-91798815D01*
X111154494Y-91719463D01*
X111044180Y-91660498D01*
X110924482Y-91624188D01*
X110800000Y-91611928D01*
X110285750Y-91615000D01*
X110127000Y-91773750D01*
X109873000Y-91773750D01*
X109714250Y-91615000D01*
X109200000Y-91611928D01*
X109075518Y-91624188D01*
X108955820Y-91660498D01*
X108845506Y-91719463D01*
X108748815Y-91798815D01*
X108669463Y-91895506D01*
X108610498Y-92005820D01*
X108574188Y-92125518D01*
X108561928Y-92250000D01*
X105306056Y-92250000D01*
X105593481Y-91623658D01*
X106447166Y-90123954D01*
X107428290Y-88704390D01*
X108529420Y-87375717D01*
X109746587Y-86143590D01*
X110294257Y-85660000D01*
X131540000Y-85660000D01*
X131540001Y-111495764D01*
X131540001Y-111495764D01*
G37*
X131540001Y-111495764D02*
X131537624Y-111494176D01*
X131331067Y-111408617D01*
X131111788Y-111365000D01*
X130888212Y-111365000D01*
X130668933Y-111408617D01*
X130462376Y-111494176D01*
X130276480Y-111618388D01*
X130118388Y-111776480D01*
X129994176Y-111962376D01*
X129908617Y-112168933D01*
X129865000Y-112388212D01*
X129865000Y-112611788D01*
X129908617Y-112831067D01*
X129994176Y-113037624D01*
X130034433Y-113097872D01*
X129992305Y-113140000D01*
X126937418Y-113140000D01*
X127005824Y-113037624D01*
X127091383Y-112831067D01*
X127135000Y-112611788D01*
X127135000Y-112388212D01*
X127091383Y-112168933D01*
X127005824Y-111962376D01*
X126881612Y-111776480D01*
X126723520Y-111618388D01*
X126537624Y-111494176D01*
X126331067Y-111408617D01*
X126111788Y-111365000D01*
X125888212Y-111365000D01*
X125668933Y-111408617D01*
X125462376Y-111494176D01*
X125276480Y-111618388D01*
X125118388Y-111776480D01*
X124994176Y-111962376D01*
X124908617Y-112168933D01*
X124865000Y-112388212D01*
X124865000Y-112611788D01*
X124908617Y-112831067D01*
X124994176Y-113037624D01*
X125062582Y-113140000D01*
X123514802Y-113140000D01*
X121134801Y-110760000D01*
X127654868Y-110760000D01*
X127776480Y-110881612D01*
X127962376Y-111005824D01*
X128168933Y-111091383D01*
X128388212Y-111135000D01*
X128611788Y-111135000D01*
X128831067Y-111091383D01*
X129037624Y-111005824D01*
X129223520Y-110881612D01*
X129381612Y-110723520D01*
X129505824Y-110537624D01*
X129591383Y-110331067D01*
X129635000Y-110111788D01*
X129635000Y-109888212D01*
X129591383Y-109668933D01*
X129505824Y-109462376D01*
X129381612Y-109276480D01*
X129223520Y-109118388D01*
X129037624Y-108994176D01*
X128831067Y-108908617D01*
X128611788Y-108865000D01*
X128388212Y-108865000D01*
X128168933Y-108908617D01*
X127962376Y-108994176D01*
X127776480Y-109118388D01*
X127654868Y-109240000D01*
X120314802Y-109240000D01*
X118310000Y-107235199D01*
X118310000Y-106740038D01*
X118394180Y-106714502D01*
X118500000Y-106657939D01*
X118605820Y-106714502D01*
X118725518Y-106750812D01*
X118850000Y-106763072D01*
X120050000Y-106763072D01*
X120174482Y-106750812D01*
X120294180Y-106714502D01*
X120397709Y-106659164D01*
X120409744Y-106667205D01*
X120598102Y-106745226D01*
X120798061Y-106785000D01*
X121001939Y-106785000D01*
X121201898Y-106745226D01*
X121390256Y-106667205D01*
X121559774Y-106553937D01*
X121703937Y-106409774D01*
X121817205Y-106240256D01*
X121895226Y-106051898D01*
X121935000Y-105851939D01*
X121935000Y-105648061D01*
X121895226Y-105448102D01*
X121889799Y-105435000D01*
X122058982Y-105435000D01*
X122100000Y-105439040D01*
X122141018Y-105435000D01*
X122141019Y-105435000D01*
X122263689Y-105422918D01*
X122421087Y-105375172D01*
X122566146Y-105297636D01*
X122693291Y-105193291D01*
X122719446Y-105161421D01*
X123545869Y-104334999D01*
X123658983Y-104334999D01*
X123700001Y-104339039D01*
X123741019Y-104334999D01*
X123741020Y-104334999D01*
X123863690Y-104322917D01*
X124021088Y-104275171D01*
X124166147Y-104197635D01*
X124255434Y-104124359D01*
X124401898Y-104095226D01*
X124590256Y-104017205D01*
X124759774Y-103903937D01*
X124903937Y-103759774D01*
X125017205Y-103590256D01*
X125044205Y-103525073D01*
X125830560Y-104311428D01*
X125856710Y-104343292D01*
X125865000Y-104350095D01*
X125865000Y-104361788D01*
X125908617Y-104581067D01*
X125994176Y-104787624D01*
X126118388Y-104973520D01*
X126276480Y-105131612D01*
X126462376Y-105255824D01*
X126668933Y-105341383D01*
X126888212Y-105385000D01*
X127111788Y-105385000D01*
X127331067Y-105341383D01*
X127537624Y-105255824D01*
X127723520Y-105131612D01*
X127881612Y-104973520D01*
X128005824Y-104787624D01*
X128091383Y-104581067D01*
X128135000Y-104361788D01*
X128135000Y-104138212D01*
X128765000Y-104138212D01*
X128765000Y-104361788D01*
X128808617Y-104581067D01*
X128894176Y-104787624D01*
X129018388Y-104973520D01*
X129176480Y-105131612D01*
X129362376Y-105255824D01*
X129568933Y-105341383D01*
X129788212Y-105385000D01*
X130011788Y-105385000D01*
X130231067Y-105341383D01*
X130437624Y-105255824D01*
X130623520Y-105131612D01*
X130781612Y-104973520D01*
X130905824Y-104787624D01*
X130991383Y-104581067D01*
X131035000Y-104361788D01*
X131035000Y-104138212D01*
X130991383Y-103918933D01*
X130905824Y-103712376D01*
X130781612Y-103526480D01*
X130623520Y-103368388D01*
X130437624Y-103244176D01*
X130231067Y-103158617D01*
X130011788Y-103115000D01*
X129788212Y-103115000D01*
X129568933Y-103158617D01*
X129362376Y-103244176D01*
X129176480Y-103368388D01*
X129018388Y-103526480D01*
X128894176Y-103712376D01*
X128808617Y-103918933D01*
X128765000Y-104138212D01*
X128135000Y-104138212D01*
X128091383Y-103918933D01*
X128005824Y-103712376D01*
X127881612Y-103526480D01*
X127723520Y-103368388D01*
X127537624Y-103244176D01*
X127331067Y-103158617D01*
X127111788Y-103115000D01*
X127042468Y-103115000D01*
X126966147Y-103052365D01*
X126895438Y-103014570D01*
X125325073Y-101444205D01*
X125390256Y-101417205D01*
X125559774Y-101303937D01*
X125703937Y-101159774D01*
X125817205Y-100990256D01*
X125895226Y-100801898D01*
X125924093Y-100656775D01*
X126811426Y-99769442D01*
X126843291Y-99743291D01*
X126947636Y-99616146D01*
X127025172Y-99471087D01*
X127072918Y-99313689D01*
X127079795Y-99243866D01*
X127094180Y-99239502D01*
X127204494Y-99180537D01*
X127301185Y-99101185D01*
X127380537Y-99004494D01*
X127439502Y-98894180D01*
X127475812Y-98774482D01*
X127488072Y-98650000D01*
X127488072Y-97022494D01*
X127558353Y-97092775D01*
X127736060Y-97211515D01*
X127933517Y-97293304D01*
X128143137Y-97335000D01*
X128356863Y-97335000D01*
X128566483Y-97293304D01*
X128763940Y-97211515D01*
X128941647Y-97092775D01*
X129092775Y-96941647D01*
X129211515Y-96763940D01*
X129293304Y-96566483D01*
X129335000Y-96356863D01*
X129335000Y-96143137D01*
X129293304Y-95933517D01*
X129211515Y-95736060D01*
X129092775Y-95558353D01*
X128941647Y-95407225D01*
X128763940Y-95288485D01*
X128566483Y-95206696D01*
X128356863Y-95165000D01*
X128143137Y-95165000D01*
X127933517Y-95206696D01*
X127736060Y-95288485D01*
X127558353Y-95407225D01*
X127407225Y-95558353D01*
X127288485Y-95736060D01*
X127272308Y-95775116D01*
X127204494Y-95719463D01*
X127094180Y-95660498D01*
X127085000Y-95657713D01*
X127085000Y-95595867D01*
X129043319Y-93637549D01*
X129060498Y-93694180D01*
X129119463Y-93804494D01*
X129198815Y-93901185D01*
X129295506Y-93980537D01*
X129405820Y-94039502D01*
X129525518Y-94075812D01*
X129650000Y-94088072D01*
X130850000Y-94088072D01*
X130974482Y-94075812D01*
X131094180Y-94039502D01*
X131204494Y-93980537D01*
X131301185Y-93901185D01*
X131380537Y-93804494D01*
X131439502Y-93694180D01*
X131475812Y-93574482D01*
X131488072Y-93450000D01*
X131488072Y-91050000D01*
X131475812Y-90925518D01*
X131439502Y-90805820D01*
X131380537Y-90695506D01*
X131301185Y-90598815D01*
X131204494Y-90519463D01*
X131094180Y-90460498D01*
X130974482Y-90424188D01*
X130850000Y-90411928D01*
X129650000Y-90411928D01*
X129525518Y-90424188D01*
X129405820Y-90460498D01*
X129335000Y-90498353D01*
X129335000Y-90443137D01*
X129293304Y-90233517D01*
X129211515Y-90036060D01*
X129092775Y-89858353D01*
X128941647Y-89707225D01*
X128763940Y-89588485D01*
X128566483Y-89506696D01*
X128356863Y-89465000D01*
X128143137Y-89465000D01*
X127933517Y-89506696D01*
X127736060Y-89588485D01*
X127558353Y-89707225D01*
X127488072Y-89777506D01*
X127488072Y-89350000D01*
X127475812Y-89225518D01*
X127439502Y-89105820D01*
X127380537Y-88995506D01*
X127301185Y-88898815D01*
X127204494Y-88819463D01*
X127094180Y-88760498D01*
X126974482Y-88724188D01*
X126850000Y-88711928D01*
X125650000Y-88711928D01*
X125525518Y-88724188D01*
X125405820Y-88760498D01*
X125295506Y-88819463D01*
X125198815Y-88898815D01*
X125119463Y-88995506D01*
X125060498Y-89105820D01*
X125024188Y-89225518D01*
X125011928Y-89350000D01*
X125011928Y-91750000D01*
X125024188Y-91874482D01*
X125060498Y-91994180D01*
X125119463Y-92104494D01*
X125198815Y-92201185D01*
X125295506Y-92280537D01*
X125405820Y-92339502D01*
X125525518Y-92375812D01*
X125650000Y-92388072D01*
X126850000Y-92388072D01*
X126974482Y-92375812D01*
X127094180Y-92339502D01*
X127204494Y-92280537D01*
X127301185Y-92201185D01*
X127380537Y-92104494D01*
X127439502Y-91994180D01*
X127475812Y-91874482D01*
X127488072Y-91750000D01*
X127488072Y-91322494D01*
X127558353Y-91392775D01*
X127736060Y-91511515D01*
X127933517Y-91593304D01*
X128143137Y-91635000D01*
X128356863Y-91635000D01*
X128566483Y-91593304D01*
X128763940Y-91511515D01*
X128941647Y-91392775D01*
X129011928Y-91322494D01*
X129011928Y-91449646D01*
X128928913Y-91474828D01*
X128783854Y-91552364D01*
X128707532Y-91615000D01*
X128656709Y-91656709D01*
X128630563Y-91688568D01*
X125688579Y-94630554D01*
X125656709Y-94656709D01*
X125580148Y-94750000D01*
X125552364Y-94783855D01*
X125474828Y-94928914D01*
X125427082Y-95086312D01*
X125410960Y-95250000D01*
X125415000Y-95291019D01*
X125415000Y-95657713D01*
X125405820Y-95660498D01*
X125295506Y-95719463D01*
X125198815Y-95798815D01*
X125119463Y-95895506D01*
X125060498Y-96005820D01*
X125024188Y-96125518D01*
X125011928Y-96250000D01*
X125011928Y-98650000D01*
X125024188Y-98774482D01*
X125060498Y-98894180D01*
X125119463Y-99004494D01*
X125162364Y-99056769D01*
X124743225Y-99475907D01*
X124598102Y-99504774D01*
X124409744Y-99582795D01*
X124335000Y-99632737D01*
X124335000Y-98641018D01*
X124339040Y-98600000D01*
X124324499Y-98452364D01*
X124322918Y-98436311D01*
X124275172Y-98278913D01*
X124197636Y-98133854D01*
X124130624Y-98052199D01*
X124119439Y-98038570D01*
X124119437Y-98038568D01*
X124093291Y-98006709D01*
X124061432Y-97980563D01*
X122819446Y-96738578D01*
X122793291Y-96706709D01*
X122666146Y-96602364D01*
X122521087Y-96524828D01*
X122363689Y-96477082D01*
X122241019Y-96465000D01*
X122241018Y-96465000D01*
X122200000Y-96460960D01*
X122158982Y-96465000D01*
X121366007Y-96465000D01*
X121324999Y-96460961D01*
X121283991Y-96465000D01*
X121283981Y-96465000D01*
X121161311Y-96477082D01*
X121003913Y-96524828D01*
X120858854Y-96602364D01*
X120731709Y-96706709D01*
X120705558Y-96738574D01*
X119338579Y-98105554D01*
X119319475Y-98121233D01*
X119225000Y-98111928D01*
X118925000Y-98111928D01*
X118800518Y-98124188D01*
X118750000Y-98139512D01*
X118699482Y-98124188D01*
X118575000Y-98111928D01*
X118275000Y-98111928D01*
X118150518Y-98124188D01*
X118100341Y-98139409D01*
X118058358Y-98126020D01*
X117956750Y-98115000D01*
X117798000Y-98273750D01*
X117798000Y-98330271D01*
X117752000Y-98386322D01*
X117752000Y-98273750D01*
X117593250Y-98115000D01*
X117491642Y-98126020D01*
X117372472Y-98164026D01*
X117263006Y-98224551D01*
X117167452Y-98305269D01*
X117089481Y-98403078D01*
X117032089Y-98514219D01*
X116997483Y-98634420D01*
X116986992Y-98759063D01*
X116990000Y-99264250D01*
X117148750Y-99423000D01*
X117636928Y-99423000D01*
X117636928Y-99677000D01*
X117148750Y-99677000D01*
X116990000Y-99835750D01*
X116986992Y-100340937D01*
X116997483Y-100465580D01*
X117032089Y-100585781D01*
X117072997Y-100665000D01*
X116912322Y-100665000D01*
X116874999Y-100661324D01*
X116837676Y-100665000D01*
X116837667Y-100665000D01*
X116726014Y-100675997D01*
X116582753Y-100719454D01*
X116450723Y-100790026D01*
X116388590Y-100841018D01*
X116334999Y-100884999D01*
X116311200Y-100913998D01*
X115688998Y-101536201D01*
X115660000Y-101559999D01*
X115636202Y-101588997D01*
X115636201Y-101588998D01*
X115565026Y-101675724D01*
X115494454Y-101807754D01*
X115481859Y-101849276D01*
X115450998Y-101951014D01*
X115446190Y-101999826D01*
X115436324Y-102100000D01*
X115440001Y-102137332D01*
X115440000Y-107662677D01*
X115436324Y-107700000D01*
X115440000Y-107737322D01*
X115440000Y-107737332D01*
X115450997Y-107848985D01*
X115486541Y-107966159D01*
X115494454Y-107992246D01*
X115565026Y-108124276D01*
X115594675Y-108160403D01*
X115659999Y-108240001D01*
X115689003Y-108263804D01*
X118836205Y-111411008D01*
X118859999Y-111440001D01*
X118888992Y-111463795D01*
X118888996Y-111463799D01*
X118926011Y-111494176D01*
X118975724Y-111534974D01*
X119107753Y-111605546D01*
X119251014Y-111649003D01*
X119362667Y-111660000D01*
X119362676Y-111660000D01*
X119399999Y-111663676D01*
X119437322Y-111660000D01*
X119885199Y-111660000D01*
X122636201Y-114411003D01*
X122659999Y-114440001D01*
X122775724Y-114534974D01*
X122907753Y-114605546D01*
X123051014Y-114649003D01*
X123162667Y-114660000D01*
X123162675Y-114660000D01*
X123200000Y-114663676D01*
X123237325Y-114660000D01*
X130269784Y-114660000D01*
X130307106Y-114663676D01*
X130344428Y-114660000D01*
X130344439Y-114660000D01*
X130456092Y-114649003D01*
X130599353Y-114605546D01*
X130731382Y-114534974D01*
X130847107Y-114440001D01*
X130870909Y-114410998D01*
X131511002Y-113770905D01*
X131540001Y-113747107D01*
X131540001Y-116067572D01*
X131540000Y-116067582D01*
X131540000Y-116290000D01*
X123449382Y-116290000D01*
X111088104Y-116282971D01*
X109920289Y-115315150D01*
X108692651Y-114102417D01*
X107575377Y-112787296D01*
X106576983Y-111379816D01*
X105705046Y-109890656D01*
X104966224Y-108331181D01*
X104366132Y-106713255D01*
X103909331Y-105049173D01*
X103599304Y-103351618D01*
X103438409Y-101633498D01*
X103427870Y-99907891D01*
X103501715Y-99000000D01*
X107109509Y-99000000D01*
X107115001Y-99055761D01*
X107115000Y-101055751D01*
X107131423Y-101222498D01*
X107196324Y-101436446D01*
X107301716Y-101633623D01*
X107443551Y-101806449D01*
X107616377Y-101948284D01*
X107813553Y-102053676D01*
X108027501Y-102118577D01*
X108250000Y-102140491D01*
X108472498Y-102118577D01*
X108686446Y-102053676D01*
X108883623Y-101948284D01*
X109056449Y-101806449D01*
X109198284Y-101633623D01*
X109303676Y-101436447D01*
X109368577Y-101222499D01*
X109385000Y-101055752D01*
X109385000Y-99470131D01*
X109967060Y-98888072D01*
X110800000Y-98888072D01*
X110924482Y-98875812D01*
X111044180Y-98839502D01*
X111154494Y-98780537D01*
X111251185Y-98701185D01*
X111330537Y-98604494D01*
X111389502Y-98494180D01*
X111425812Y-98374482D01*
X111438072Y-98250000D01*
X111438072Y-98010000D01*
X115062678Y-98010000D01*
X115100000Y-98013676D01*
X115137322Y-98010000D01*
X115137333Y-98010000D01*
X115248986Y-97999003D01*
X115392247Y-97955546D01*
X115524276Y-97884974D01*
X115640001Y-97790001D01*
X115663804Y-97760997D01*
X116944824Y-96479977D01*
X116945506Y-96480537D01*
X117055820Y-96539502D01*
X117175518Y-96575812D01*
X117300000Y-96588072D01*
X118200000Y-96588072D01*
X118324482Y-96575812D01*
X118444180Y-96539502D01*
X118554494Y-96480537D01*
X118651185Y-96401185D01*
X118730537Y-96304494D01*
X118789502Y-96194180D01*
X118825812Y-96074482D01*
X118838072Y-95950000D01*
X118838072Y-94750000D01*
X118825812Y-94625518D01*
X118789502Y-94505820D01*
X118730537Y-94395506D01*
X118651185Y-94298815D01*
X118591704Y-94250000D01*
X118651185Y-94201185D01*
X118730537Y-94104494D01*
X118789502Y-93994180D01*
X118825812Y-93874482D01*
X118838072Y-93750000D01*
X118838072Y-92550000D01*
X118825812Y-92425518D01*
X118789502Y-92305820D01*
X118730537Y-92195506D01*
X118651185Y-92098815D01*
X118554494Y-92019463D01*
X118444180Y-91960498D01*
X118324482Y-91924188D01*
X118200000Y-91911928D01*
X117300000Y-91911928D01*
X117175518Y-91924188D01*
X117055820Y-91960498D01*
X116945506Y-92019463D01*
X116848815Y-92098815D01*
X116769463Y-92195506D01*
X116710498Y-92305820D01*
X116684962Y-92390000D01*
X116287325Y-92390000D01*
X116250000Y-92386324D01*
X116212675Y-92390000D01*
X116212667Y-92390000D01*
X116101014Y-92400997D01*
X115957753Y-92444454D01*
X115825724Y-92515026D01*
X115709999Y-92609999D01*
X115687459Y-92637464D01*
X115660000Y-92659999D01*
X115636202Y-92688997D01*
X115636201Y-92688998D01*
X115565026Y-92775724D01*
X115494454Y-92907754D01*
X115450998Y-93051015D01*
X115436324Y-93200000D01*
X115440001Y-93237332D01*
X115440000Y-94085198D01*
X114835199Y-94690000D01*
X114815038Y-94690000D01*
X114789502Y-94605820D01*
X114730537Y-94495506D01*
X114651185Y-94398815D01*
X114591704Y-94350000D01*
X114651185Y-94301185D01*
X114730537Y-94204494D01*
X114789502Y-94094180D01*
X114825812Y-93974482D01*
X114838072Y-93850000D01*
X114835000Y-93535750D01*
X114676250Y-93377000D01*
X113877000Y-93377000D01*
X113877000Y-93397000D01*
X113623000Y-93397000D01*
X113623000Y-93377000D01*
X112823750Y-93377000D01*
X112665000Y-93535750D01*
X112661928Y-93850000D01*
X112674188Y-93974482D01*
X112710498Y-94094180D01*
X112769463Y-94204494D01*
X112848815Y-94301185D01*
X112908296Y-94350000D01*
X112848815Y-94398815D01*
X112769463Y-94495506D01*
X112710498Y-94605820D01*
X112674188Y-94725518D01*
X112661928Y-94850000D01*
X112661928Y-96050000D01*
X112674188Y-96174482D01*
X112710498Y-96294180D01*
X112769463Y-96404494D01*
X112839636Y-96490000D01*
X111438072Y-96490000D01*
X111438072Y-96250000D01*
X111425812Y-96125518D01*
X111389502Y-96005820D01*
X111330537Y-95895506D01*
X111251185Y-95798815D01*
X111154494Y-95719463D01*
X111044180Y-95660498D01*
X110924482Y-95624188D01*
X110800000Y-95611928D01*
X109200000Y-95611928D01*
X109075518Y-95624188D01*
X108955820Y-95660498D01*
X108845506Y-95719463D01*
X108748815Y-95798815D01*
X108669463Y-95895506D01*
X108610498Y-96005820D01*
X108574188Y-96125518D01*
X108561928Y-96250000D01*
X108561928Y-97082940D01*
X107486860Y-98158009D01*
X107443552Y-98193551D01*
X107301717Y-98366377D01*
X107278134Y-98410498D01*
X107196324Y-98563554D01*
X107131423Y-98777502D01*
X107109509Y-99000000D01*
X103501715Y-99000000D01*
X103567768Y-98187928D01*
X103857037Y-96486708D01*
X104293478Y-94817171D01*
X104495997Y-94250000D01*
X108561928Y-94250000D01*
X108574188Y-94374482D01*
X108610498Y-94494180D01*
X108669463Y-94604494D01*
X108748815Y-94701185D01*
X108845506Y-94780537D01*
X108955820Y-94839502D01*
X109075518Y-94875812D01*
X109200000Y-94888072D01*
X109714250Y-94885000D01*
X109873000Y-94726250D01*
X109873000Y-93377000D01*
X110127000Y-93377000D01*
X110127000Y-94726250D01*
X110285750Y-94885000D01*
X110800000Y-94888072D01*
X110924482Y-94875812D01*
X111044180Y-94839502D01*
X111154494Y-94780537D01*
X111251185Y-94701185D01*
X111330537Y-94604494D01*
X111389502Y-94494180D01*
X111425812Y-94374482D01*
X111438072Y-94250000D01*
X111435000Y-93535750D01*
X111276250Y-93377000D01*
X110127000Y-93377000D01*
X109873000Y-93377000D01*
X108723750Y-93377000D01*
X108565000Y-93535750D01*
X108561928Y-94250000D01*
X104495997Y-94250000D01*
X104873764Y-93192034D01*
X105306056Y-92250000D01*
X108561928Y-92250000D01*
X108565000Y-92964250D01*
X108723750Y-93123000D01*
X109873000Y-93123000D01*
X109873000Y-91773750D01*
X110127000Y-91773750D01*
X110127000Y-93123000D01*
X111276250Y-93123000D01*
X111435000Y-92964250D01*
X111436351Y-92650000D01*
X112661928Y-92650000D01*
X112665000Y-92964250D01*
X112823750Y-93123000D01*
X113623000Y-93123000D01*
X113623000Y-92173750D01*
X113877000Y-92173750D01*
X113877000Y-93123000D01*
X114676250Y-93123000D01*
X114835000Y-92964250D01*
X114838072Y-92650000D01*
X114825812Y-92525518D01*
X114789502Y-92405820D01*
X114730537Y-92295506D01*
X114651185Y-92198815D01*
X114554494Y-92119463D01*
X114444180Y-92060498D01*
X114324482Y-92024188D01*
X114200000Y-92011928D01*
X114035750Y-92015000D01*
X113877000Y-92173750D01*
X113623000Y-92173750D01*
X113464250Y-92015000D01*
X113300000Y-92011928D01*
X113175518Y-92024188D01*
X113055820Y-92060498D01*
X112945506Y-92119463D01*
X112848815Y-92198815D01*
X112769463Y-92295506D01*
X112710498Y-92405820D01*
X112674188Y-92525518D01*
X112661928Y-92650000D01*
X111436351Y-92650000D01*
X111438072Y-92250000D01*
X111425812Y-92125518D01*
X111389502Y-92005820D01*
X111330537Y-91895506D01*
X111251185Y-91798815D01*
X111154494Y-91719463D01*
X111044180Y-91660498D01*
X110924482Y-91624188D01*
X110800000Y-91611928D01*
X110285750Y-91615000D01*
X110127000Y-91773750D01*
X109873000Y-91773750D01*
X109714250Y-91615000D01*
X109200000Y-91611928D01*
X109075518Y-91624188D01*
X108955820Y-91660498D01*
X108845506Y-91719463D01*
X108748815Y-91798815D01*
X108669463Y-91895506D01*
X108610498Y-92005820D01*
X108574188Y-92125518D01*
X108561928Y-92250000D01*
X105306056Y-92250000D01*
X105593481Y-91623658D01*
X106447166Y-90123954D01*
X107428290Y-88704390D01*
X108529420Y-87375717D01*
X109746587Y-86143590D01*
X110294257Y-85660000D01*
X131540000Y-85660000D01*
X131540001Y-111495764D01*
G36*
X122082522Y-98363390D02*
G01*
X122035750Y-98365000D01*
X121877000Y-98523750D01*
X121877000Y-99473000D01*
X121897000Y-99473000D01*
X121897000Y-99727000D01*
X121877000Y-99727000D01*
X121877000Y-99747000D01*
X121623000Y-99747000D01*
X121623000Y-99727000D01*
X120898750Y-99727000D01*
X120740000Y-99885750D01*
X120736928Y-100200000D01*
X120749188Y-100324482D01*
X120785498Y-100444180D01*
X120842061Y-100550000D01*
X120785498Y-100655820D01*
X120749188Y-100775518D01*
X120736928Y-100900000D01*
X120736928Y-102100000D01*
X120745792Y-102190000D01*
X120513072Y-102190000D01*
X120513072Y-102150000D01*
X120500812Y-102025518D01*
X120464502Y-101905820D01*
X120405537Y-101795506D01*
X120326185Y-101698815D01*
X120229494Y-101619463D01*
X120119180Y-101560498D01*
X119999482Y-101524188D01*
X119875000Y-101511928D01*
X119835000Y-101511928D01*
X119835000Y-101462332D01*
X119838677Y-101425000D01*
X119835000Y-101387667D01*
X119835000Y-100988072D01*
X119875000Y-100988072D01*
X119999482Y-100975812D01*
X120119180Y-100939502D01*
X120229494Y-100880537D01*
X120326185Y-100801185D01*
X120405537Y-100704494D01*
X120464502Y-100594180D01*
X120500812Y-100474482D01*
X120513072Y-100350000D01*
X120513072Y-99944188D01*
X120597636Y-99841146D01*
X120675172Y-99696087D01*
X120722918Y-99538689D01*
X120735000Y-99416019D01*
X120735000Y-99416009D01*
X120739039Y-99375001D01*
X120735000Y-99333993D01*
X120735000Y-99070867D01*
X120737595Y-99068272D01*
X120740000Y-99314250D01*
X120898750Y-99473000D01*
X121623000Y-99473000D01*
X121623000Y-98523750D01*
X121464250Y-98365000D01*
X121441646Y-98364222D01*
X121670868Y-98135000D01*
X121854133Y-98135000D01*
X122082522Y-98363390D01*
X122082522Y-98363390D01*
G37*
X122082522Y-98363390D02*
X122035750Y-98365000D01*
X121877000Y-98523750D01*
X121877000Y-99473000D01*
X121897000Y-99473000D01*
X121897000Y-99727000D01*
X121877000Y-99727000D01*
X121877000Y-99747000D01*
X121623000Y-99747000D01*
X121623000Y-99727000D01*
X120898750Y-99727000D01*
X120740000Y-99885750D01*
X120736928Y-100200000D01*
X120749188Y-100324482D01*
X120785498Y-100444180D01*
X120842061Y-100550000D01*
X120785498Y-100655820D01*
X120749188Y-100775518D01*
X120736928Y-100900000D01*
X120736928Y-102100000D01*
X120745792Y-102190000D01*
X120513072Y-102190000D01*
X120513072Y-102150000D01*
X120500812Y-102025518D01*
X120464502Y-101905820D01*
X120405537Y-101795506D01*
X120326185Y-101698815D01*
X120229494Y-101619463D01*
X120119180Y-101560498D01*
X119999482Y-101524188D01*
X119875000Y-101511928D01*
X119835000Y-101511928D01*
X119835000Y-101462332D01*
X119838677Y-101425000D01*
X119835000Y-101387667D01*
X119835000Y-100988072D01*
X119875000Y-100988072D01*
X119999482Y-100975812D01*
X120119180Y-100939502D01*
X120229494Y-100880537D01*
X120326185Y-100801185D01*
X120405537Y-100704494D01*
X120464502Y-100594180D01*
X120500812Y-100474482D01*
X120513072Y-100350000D01*
X120513072Y-99944188D01*
X120597636Y-99841146D01*
X120675172Y-99696087D01*
X120722918Y-99538689D01*
X120735000Y-99416019D01*
X120735000Y-99416009D01*
X120739039Y-99375001D01*
X120735000Y-99333993D01*
X120735000Y-99070867D01*
X120737595Y-99068272D01*
X120740000Y-99314250D01*
X120898750Y-99473000D01*
X121623000Y-99473000D01*
X121623000Y-98523750D01*
X121464250Y-98365000D01*
X121441646Y-98364222D01*
X121670868Y-98135000D01*
X121854133Y-98135000D01*
X122082522Y-98363390D01*
M02*
