G04 #@! TF.GenerationSoftware,KiCad,Pcbnew,5.1.0*
G04 #@! TF.CreationDate,2019-04-07T17:06:29+09:00*
G04 #@! TF.ProjectId,noname,6e6f6e61-6d65-42e6-9b69-6361645f7063,rev?*
G04 #@! TF.SameCoordinates,Original*
G04 #@! TF.FileFunction,Paste,Top*
G04 #@! TF.FilePolarity,Positive*
%FSLAX46Y46*%
G04 Gerber Fmt 4.6, Leading zero omitted, Abs format (unit mm)*
G04 Created by KiCad (PCBNEW 5.1.0) date 2019-04-07 17:06:29*
%MOMM*%
%LPD*%
G04 APERTURE LIST*
%ADD10R,1.600000X2.000000*%
%ADD11R,1.200000X0.750000*%
%ADD12R,0.750000X1.200000*%
%ADD13R,0.300000X1.600000*%
%ADD14R,0.900000X1.200000*%
%ADD15C,1.000000*%
%ADD16R,1.200000X2.400000*%
G04 APERTURE END LIST*
D10*
X172600000Y-119350000D03*
X172600000Y-123350000D03*
X142600000Y-119350000D03*
X142600000Y-123350000D03*
X112600000Y-119350000D03*
X112600000Y-123350000D03*
X172600000Y-86350000D03*
X172600000Y-90350000D03*
X142600000Y-86350000D03*
X142600000Y-90350000D03*
X112600000Y-86350000D03*
X112600000Y-90350000D03*
X172600000Y-53350000D03*
X172600000Y-57350000D03*
X142600000Y-53350000D03*
X142600000Y-57350000D03*
D11*
X182050000Y-131850000D03*
X180150000Y-131850000D03*
X152050000Y-131850000D03*
X150150000Y-131850000D03*
X122050000Y-131850000D03*
X120150000Y-131850000D03*
X182050000Y-98850000D03*
X180150000Y-98850000D03*
X152050000Y-98850000D03*
X150150000Y-98850000D03*
X122050000Y-98850000D03*
X120150000Y-98850000D03*
X182050000Y-65850000D03*
X180150000Y-65850000D03*
X152050000Y-65850000D03*
X150150000Y-65850000D03*
D12*
X184350000Y-125700000D03*
X184350000Y-127600000D03*
X154350000Y-125700000D03*
X154350000Y-127600000D03*
X124350000Y-125700000D03*
X124350000Y-127600000D03*
X184350000Y-92700000D03*
X184350000Y-94600000D03*
X154350000Y-92700000D03*
X154350000Y-94600000D03*
X124350000Y-92700000D03*
X124350000Y-94600000D03*
X184350000Y-59700000D03*
X184350000Y-61600000D03*
X154350000Y-59700000D03*
X154350000Y-61600000D03*
D13*
X180375000Y-129050000D03*
X181025000Y-129050000D03*
X181675000Y-129050000D03*
X182325000Y-129050000D03*
X182325000Y-125650000D03*
X181675000Y-125650000D03*
X181025000Y-125650000D03*
X180375000Y-125650000D03*
X150375000Y-129050000D03*
X151025000Y-129050000D03*
X151675000Y-129050000D03*
X152325000Y-129050000D03*
X152325000Y-125650000D03*
X151675000Y-125650000D03*
X151025000Y-125650000D03*
X150375000Y-125650000D03*
X120375000Y-129050000D03*
X121025000Y-129050000D03*
X121675000Y-129050000D03*
X122325000Y-129050000D03*
X122325000Y-125650000D03*
X121675000Y-125650000D03*
X121025000Y-125650000D03*
X120375000Y-125650000D03*
X180375000Y-96050000D03*
X181025000Y-96050000D03*
X181675000Y-96050000D03*
X182325000Y-96050000D03*
X182325000Y-92650000D03*
X181675000Y-92650000D03*
X181025000Y-92650000D03*
X180375000Y-92650000D03*
X150375000Y-96050000D03*
X151025000Y-96050000D03*
X151675000Y-96050000D03*
X152325000Y-96050000D03*
X152325000Y-92650000D03*
X151675000Y-92650000D03*
X151025000Y-92650000D03*
X150375000Y-92650000D03*
X120375000Y-96050000D03*
X121025000Y-96050000D03*
X121675000Y-96050000D03*
X122325000Y-96050000D03*
X122325000Y-92650000D03*
X121675000Y-92650000D03*
X121025000Y-92650000D03*
X120375000Y-92650000D03*
X180375000Y-63050000D03*
X181025000Y-63050000D03*
X181675000Y-63050000D03*
X182325000Y-63050000D03*
X182325000Y-59650000D03*
X181675000Y-59650000D03*
X181025000Y-59650000D03*
X180375000Y-59650000D03*
X150375000Y-63050000D03*
X151025000Y-63050000D03*
X151675000Y-63050000D03*
X152325000Y-63050000D03*
X152325000Y-59650000D03*
X151675000Y-59650000D03*
X151025000Y-59650000D03*
X150375000Y-59650000D03*
D14*
X176350000Y-119350000D03*
X176350000Y-121550000D03*
X146350000Y-119350000D03*
X146350000Y-121550000D03*
X116350000Y-119350000D03*
X116350000Y-121550000D03*
X176350000Y-86350000D03*
X176350000Y-88550000D03*
X146350000Y-86350000D03*
X146350000Y-88550000D03*
X116350000Y-86350000D03*
X116350000Y-88550000D03*
X176350000Y-53350000D03*
X176350000Y-55550000D03*
X146350000Y-53350000D03*
X146350000Y-55550000D03*
D15*
X192500000Y-130350000D03*
X189600000Y-130350000D03*
X162500000Y-130350000D03*
X159600000Y-130350000D03*
X132500000Y-130350000D03*
X129600000Y-130350000D03*
X192500000Y-97350000D03*
X189600000Y-97350000D03*
X162500000Y-97350000D03*
X159600000Y-97350000D03*
X132500000Y-97350000D03*
X129600000Y-97350000D03*
X192500000Y-64350000D03*
X189600000Y-64350000D03*
X162500000Y-64350000D03*
X159600000Y-64350000D03*
D14*
X180350000Y-121450000D03*
X180350000Y-119250000D03*
X150350000Y-121450000D03*
X150350000Y-119250000D03*
X120350000Y-121450000D03*
X120350000Y-119250000D03*
X180350000Y-88450000D03*
X180350000Y-86250000D03*
X150350000Y-88450000D03*
X150350000Y-86250000D03*
X120350000Y-88450000D03*
X120350000Y-86250000D03*
X180350000Y-55450000D03*
X180350000Y-53250000D03*
X150350000Y-55450000D03*
X150350000Y-53250000D03*
D16*
X192850000Y-118350000D03*
X188850000Y-116650000D03*
X188850000Y-123550000D03*
X162850000Y-118350000D03*
X158850000Y-116650000D03*
X158850000Y-123550000D03*
X132850000Y-118350000D03*
X128850000Y-116650000D03*
X128850000Y-123550000D03*
X192850000Y-85350000D03*
X188850000Y-83650000D03*
X188850000Y-90550000D03*
X162850000Y-85350000D03*
X158850000Y-83650000D03*
X158850000Y-90550000D03*
X132850000Y-85350000D03*
X128850000Y-83650000D03*
X128850000Y-90550000D03*
X192850000Y-52350000D03*
X188850000Y-50650000D03*
X188850000Y-57550000D03*
X162850000Y-52350000D03*
X158850000Y-50650000D03*
X158850000Y-57550000D03*
D10*
X112600000Y-57350000D03*
X112600000Y-53350000D03*
D11*
X120150000Y-65850000D03*
X122050000Y-65850000D03*
D12*
X124350000Y-61600000D03*
X124350000Y-59700000D03*
D14*
X120350000Y-53250000D03*
X120350000Y-55450000D03*
D16*
X128850000Y-57550000D03*
X128850000Y-50650000D03*
X132850000Y-52350000D03*
D15*
X129600000Y-64350000D03*
X132500000Y-64350000D03*
D14*
X116350000Y-55550000D03*
X116350000Y-53350000D03*
D13*
X120375000Y-59650000D03*
X121025000Y-59650000D03*
X121675000Y-59650000D03*
X122325000Y-59650000D03*
X122325000Y-63050000D03*
X121675000Y-63050000D03*
X121025000Y-63050000D03*
X120375000Y-63050000D03*
M02*
