M48
; DRILL file {KiCad 5.1.0} date 2019年04月07日 17時06分44秒
; FORMAT={-:-/ absolute / metric / decimal}
; #@! TF.CreationDate,2019-04-07T17:06:44+09:00
; #@! TF.GenerationSoftware,Kicad,Pcbnew,5.1.0
; #@! TF.FileFunction,Plated,1,2,PTH
FMAT,2
METRIC
T1C0.400
T2C0.600
T3C0.700
T4C1.000
%
G90
G05
T1
X110.85Y-61.1
X110.85Y-94.1
X110.85Y-127.1
X111.3Y-50.45
X111.3Y-83.45
X111.3Y-116.45
X112.55Y-51.5
X112.55Y-84.5
X112.55Y-117.5
X120.4Y-57.85
X120.4Y-90.85
X120.4Y-123.85
X123.5Y-63.9
X123.5Y-65.85
X123.5Y-96.9
X123.5Y-98.85
X123.5Y-129.9
X123.5Y-131.85
X124.35Y-58.35
X124.35Y-91.35
X124.35Y-124.35
X126.7Y-63.2
X126.7Y-96.2
X126.7Y-129.2
X127.5Y-60.6
X127.5Y-93.6
X127.5Y-126.6
X140.85Y-61.1
X140.85Y-94.1
X140.85Y-127.1
X141.3Y-50.45
X141.3Y-83.45
X141.3Y-116.45
X142.55Y-51.5
X142.55Y-84.5
X142.55Y-117.5
X150.4Y-57.85
X150.4Y-90.85
X150.4Y-123.85
X153.5Y-63.9
X153.5Y-65.85
X153.5Y-96.9
X153.5Y-98.85
X153.5Y-129.9
X153.5Y-131.85
X154.35Y-58.35
X154.35Y-91.35
X154.35Y-124.35
X156.7Y-63.2
X156.7Y-96.2
X156.7Y-129.2
X157.5Y-60.6
X157.5Y-93.6
X157.5Y-126.6
X170.85Y-61.1
X170.85Y-94.1
X170.85Y-127.1
X171.3Y-50.45
X171.3Y-83.45
X171.3Y-116.45
X172.55Y-51.5
X172.55Y-84.5
X172.55Y-117.5
X180.4Y-57.85
X180.4Y-90.85
X180.4Y-123.85
X183.5Y-63.9
X183.5Y-65.85
X183.5Y-96.9
X183.5Y-98.85
X183.5Y-129.9
X183.5Y-131.85
X184.35Y-58.35
X184.35Y-91.35
X184.35Y-124.35
X186.7Y-63.2
X186.7Y-96.2
X186.7Y-129.2
X187.5Y-60.6
X187.5Y-93.6
X187.5Y-126.6
T2
X158.6Y-105.6
X161.1Y-103.1
X163.6Y-105.6
X188.6Y-138.6
X191.1Y-136.1
X193.6Y-138.6
X128.6Y-138.6
X131.1Y-136.1
X133.6Y-138.6
X188.6Y-72.6
X191.1Y-70.1
X193.6Y-72.6
X128.6Y-72.6
X131.1Y-70.1
X133.6Y-72.6
X128.6Y-105.6
X131.1Y-103.1
X133.6Y-105.6
X158.6Y-138.6
X161.1Y-136.1
X163.6Y-138.6
X158.6Y-72.6
X161.1Y-70.1
X163.6Y-72.6
X188.6Y-105.6
X191.1Y-103.1
X193.6Y-105.6
T3
X159.6Y-64.35
X162.5Y-64.35
X159.6Y-130.35
X162.5Y-130.35
X189.6Y-130.35
X192.5Y-130.35
X189.6Y-64.35
X192.5Y-64.35
X159.6Y-97.35
X162.5Y-97.35
X129.6Y-97.35
X132.5Y-97.35
X129.6Y-130.35
X132.5Y-130.35
X189.6Y-97.35
X192.5Y-97.35
X129.6Y-64.35
X132.5Y-64.35
T4
X188.85Y-83.65
X188.85Y-90.55
X192.85Y-85.35
X128.85Y-50.65
X128.85Y-57.55
X132.85Y-52.35
X158.85Y-116.65
X158.85Y-123.55
X162.85Y-118.35
X158.85Y-83.65
X158.85Y-90.55
X162.85Y-85.35
X188.85Y-116.65
X188.85Y-123.55
X192.85Y-118.35
X188.85Y-50.65
X188.85Y-57.55
X192.85Y-52.35
X128.85Y-83.65
X128.85Y-90.55
X132.85Y-85.35
X128.85Y-116.65
X128.85Y-123.55
X132.85Y-118.35
X158.85Y-50.65
X158.85Y-57.55
X162.85Y-52.35
T0
M30
