G04 #@! TF.GenerationSoftware,KiCad,Pcbnew,5.1.0*
G04 #@! TF.CreationDate,2019-04-07T17:06:29+09:00*
G04 #@! TF.ProjectId,noname,6e6f6e61-6d65-42e6-9b69-6361645f7063,rev?*
G04 #@! TF.SameCoordinates,Original*
G04 #@! TF.FileFunction,Legend,Bot*
G04 #@! TF.FilePolarity,Positive*
%FSLAX46Y46*%
G04 Gerber Fmt 4.6, Leading zero omitted, Abs format (unit mm)*
G04 Created by KiCad (PCBNEW 5.1.0) date 2019-04-07 17:06:29*
%MOMM*%
%LPD*%
G04 APERTURE LIST*
%ADD10C,0.150000*%
G04 APERTURE END LIST*
D10*
X166600000Y-116700000D02*
X166600000Y-137400000D01*
X173400000Y-137400000D02*
X166600000Y-137400000D01*
X173400000Y-142600000D02*
X173400000Y-137400000D01*
X178800000Y-142600000D02*
X173400000Y-142600000D01*
X178800000Y-137300000D02*
X178800000Y-142600000D01*
X173500000Y-116700000D02*
X166600000Y-116700000D01*
X173500000Y-111400000D02*
X173500000Y-116700000D01*
X178900000Y-111400000D02*
X173500000Y-111400000D01*
X178900000Y-116700000D02*
X178900000Y-111400000D01*
X186600000Y-130800000D02*
X186600000Y-123200000D01*
X180800000Y-116700000D02*
X186600000Y-123200000D01*
X180800000Y-137300000D02*
X186600000Y-130800000D01*
X178900000Y-116700000D02*
X180800000Y-116700000D01*
X178800000Y-137300000D02*
X180800000Y-137300000D01*
X136600000Y-116700000D02*
X136600000Y-137400000D01*
X143400000Y-137400000D02*
X136600000Y-137400000D01*
X143400000Y-142600000D02*
X143400000Y-137400000D01*
X148800000Y-142600000D02*
X143400000Y-142600000D01*
X148800000Y-137300000D02*
X148800000Y-142600000D01*
X143500000Y-116700000D02*
X136600000Y-116700000D01*
X143500000Y-111400000D02*
X143500000Y-116700000D01*
X148900000Y-111400000D02*
X143500000Y-111400000D01*
X148900000Y-116700000D02*
X148900000Y-111400000D01*
X156600000Y-130800000D02*
X156600000Y-123200000D01*
X150800000Y-116700000D02*
X156600000Y-123200000D01*
X150800000Y-137300000D02*
X156600000Y-130800000D01*
X148900000Y-116700000D02*
X150800000Y-116700000D01*
X148800000Y-137300000D02*
X150800000Y-137300000D01*
X106600000Y-116700000D02*
X106600000Y-137400000D01*
X113400000Y-137400000D02*
X106600000Y-137400000D01*
X113400000Y-142600000D02*
X113400000Y-137400000D01*
X118800000Y-142600000D02*
X113400000Y-142600000D01*
X118800000Y-137300000D02*
X118800000Y-142600000D01*
X113500000Y-116700000D02*
X106600000Y-116700000D01*
X113500000Y-111400000D02*
X113500000Y-116700000D01*
X118900000Y-111400000D02*
X113500000Y-111400000D01*
X118900000Y-116700000D02*
X118900000Y-111400000D01*
X126600000Y-130800000D02*
X126600000Y-123200000D01*
X120800000Y-116700000D02*
X126600000Y-123200000D01*
X120800000Y-137300000D02*
X126600000Y-130800000D01*
X118900000Y-116700000D02*
X120800000Y-116700000D01*
X118800000Y-137300000D02*
X120800000Y-137300000D01*
X166600000Y-83700000D02*
X166600000Y-104400000D01*
X173400000Y-104400000D02*
X166600000Y-104400000D01*
X173400000Y-109600000D02*
X173400000Y-104400000D01*
X178800000Y-109600000D02*
X173400000Y-109600000D01*
X178800000Y-104300000D02*
X178800000Y-109600000D01*
X173500000Y-83700000D02*
X166600000Y-83700000D01*
X173500000Y-78400000D02*
X173500000Y-83700000D01*
X178900000Y-78400000D02*
X173500000Y-78400000D01*
X178900000Y-83700000D02*
X178900000Y-78400000D01*
X186600000Y-97800000D02*
X186600000Y-90200000D01*
X180800000Y-83700000D02*
X186600000Y-90200000D01*
X180800000Y-104300000D02*
X186600000Y-97800000D01*
X178900000Y-83700000D02*
X180800000Y-83700000D01*
X178800000Y-104300000D02*
X180800000Y-104300000D01*
X136600000Y-83700000D02*
X136600000Y-104400000D01*
X143400000Y-104400000D02*
X136600000Y-104400000D01*
X143400000Y-109600000D02*
X143400000Y-104400000D01*
X148800000Y-109600000D02*
X143400000Y-109600000D01*
X148800000Y-104300000D02*
X148800000Y-109600000D01*
X143500000Y-83700000D02*
X136600000Y-83700000D01*
X143500000Y-78400000D02*
X143500000Y-83700000D01*
X148900000Y-78400000D02*
X143500000Y-78400000D01*
X148900000Y-83700000D02*
X148900000Y-78400000D01*
X156600000Y-97800000D02*
X156600000Y-90200000D01*
X150800000Y-83700000D02*
X156600000Y-90200000D01*
X150800000Y-104300000D02*
X156600000Y-97800000D01*
X148900000Y-83700000D02*
X150800000Y-83700000D01*
X148800000Y-104300000D02*
X150800000Y-104300000D01*
X106600000Y-83700000D02*
X106600000Y-104400000D01*
X113400000Y-104400000D02*
X106600000Y-104400000D01*
X113400000Y-109600000D02*
X113400000Y-104400000D01*
X118800000Y-109600000D02*
X113400000Y-109600000D01*
X118800000Y-104300000D02*
X118800000Y-109600000D01*
X113500000Y-83700000D02*
X106600000Y-83700000D01*
X113500000Y-78400000D02*
X113500000Y-83700000D01*
X118900000Y-78400000D02*
X113500000Y-78400000D01*
X118900000Y-83700000D02*
X118900000Y-78400000D01*
X126600000Y-97800000D02*
X126600000Y-90200000D01*
X120800000Y-83700000D02*
X126600000Y-90200000D01*
X120800000Y-104300000D02*
X126600000Y-97800000D01*
X118900000Y-83700000D02*
X120800000Y-83700000D01*
X118800000Y-104300000D02*
X120800000Y-104300000D01*
X166600000Y-50700000D02*
X166600000Y-71400000D01*
X173400000Y-71400000D02*
X166600000Y-71400000D01*
X173400000Y-76600000D02*
X173400000Y-71400000D01*
X178800000Y-76600000D02*
X173400000Y-76600000D01*
X178800000Y-71300000D02*
X178800000Y-76600000D01*
X173500000Y-50700000D02*
X166600000Y-50700000D01*
X173500000Y-45400000D02*
X173500000Y-50700000D01*
X178900000Y-45400000D02*
X173500000Y-45400000D01*
X178900000Y-50700000D02*
X178900000Y-45400000D01*
X186600000Y-64800000D02*
X186600000Y-57200000D01*
X180800000Y-50700000D02*
X186600000Y-57200000D01*
X180800000Y-71300000D02*
X186600000Y-64800000D01*
X178900000Y-50700000D02*
X180800000Y-50700000D01*
X178800000Y-71300000D02*
X180800000Y-71300000D01*
X136600000Y-50700000D02*
X136600000Y-71400000D01*
X143400000Y-71400000D02*
X136600000Y-71400000D01*
X143400000Y-76600000D02*
X143400000Y-71400000D01*
X148800000Y-76600000D02*
X143400000Y-76600000D01*
X148800000Y-71300000D02*
X148800000Y-76600000D01*
X143500000Y-50700000D02*
X136600000Y-50700000D01*
X143500000Y-45400000D02*
X143500000Y-50700000D01*
X148900000Y-45400000D02*
X143500000Y-45400000D01*
X148900000Y-50700000D02*
X148900000Y-45400000D01*
X156600000Y-64800000D02*
X156600000Y-57200000D01*
X150800000Y-50700000D02*
X156600000Y-57200000D01*
X150800000Y-71300000D02*
X156600000Y-64800000D01*
X148900000Y-50700000D02*
X150800000Y-50700000D01*
X148800000Y-71300000D02*
X150800000Y-71300000D01*
X118800000Y-71300000D02*
X120800000Y-71300000D01*
X118900000Y-50700000D02*
X120800000Y-50700000D01*
X120800000Y-71300000D02*
X126600000Y-64800000D01*
X120800000Y-50700000D02*
X126600000Y-57200000D01*
X126600000Y-64800000D02*
X126600000Y-57200000D01*
X118900000Y-50700000D02*
X118900000Y-45400000D01*
X118900000Y-45400000D02*
X113500000Y-45400000D01*
X113500000Y-45400000D02*
X113500000Y-50700000D01*
X113500000Y-50700000D02*
X106600000Y-50700000D01*
X118800000Y-71300000D02*
X118800000Y-76600000D01*
X118800000Y-76600000D02*
X113400000Y-76600000D01*
X113400000Y-76600000D02*
X113400000Y-71400000D01*
X113400000Y-71400000D02*
X106600000Y-71400000D01*
X106600000Y-50700000D02*
X106600000Y-71400000D01*
X176528571Y-126214285D02*
X176576190Y-126357142D01*
X176623809Y-126404761D01*
X176719047Y-126452380D01*
X176861904Y-126452380D01*
X176957142Y-126404761D01*
X177004761Y-126357142D01*
X177052380Y-126261904D01*
X177052380Y-125880952D01*
X176052380Y-125880952D01*
X176052380Y-126214285D01*
X176100000Y-126309523D01*
X176147619Y-126357142D01*
X176242857Y-126404761D01*
X176338095Y-126404761D01*
X176433333Y-126357142D01*
X176480952Y-126309523D01*
X176528571Y-126214285D01*
X176528571Y-125880952D01*
X176052380Y-126738095D02*
X176052380Y-127309523D01*
X177052380Y-127023809D02*
X176052380Y-127023809D01*
X177052380Y-128166666D02*
X177052380Y-127595238D01*
X177052380Y-127880952D02*
X176052380Y-127880952D01*
X176195238Y-127785714D01*
X176290476Y-127690476D01*
X176338095Y-127595238D01*
X146528571Y-126214285D02*
X146576190Y-126357142D01*
X146623809Y-126404761D01*
X146719047Y-126452380D01*
X146861904Y-126452380D01*
X146957142Y-126404761D01*
X147004761Y-126357142D01*
X147052380Y-126261904D01*
X147052380Y-125880952D01*
X146052380Y-125880952D01*
X146052380Y-126214285D01*
X146100000Y-126309523D01*
X146147619Y-126357142D01*
X146242857Y-126404761D01*
X146338095Y-126404761D01*
X146433333Y-126357142D01*
X146480952Y-126309523D01*
X146528571Y-126214285D01*
X146528571Y-125880952D01*
X146052380Y-126738095D02*
X146052380Y-127309523D01*
X147052380Y-127023809D02*
X146052380Y-127023809D01*
X147052380Y-128166666D02*
X147052380Y-127595238D01*
X147052380Y-127880952D02*
X146052380Y-127880952D01*
X146195238Y-127785714D01*
X146290476Y-127690476D01*
X146338095Y-127595238D01*
X116528571Y-126214285D02*
X116576190Y-126357142D01*
X116623809Y-126404761D01*
X116719047Y-126452380D01*
X116861904Y-126452380D01*
X116957142Y-126404761D01*
X117004761Y-126357142D01*
X117052380Y-126261904D01*
X117052380Y-125880952D01*
X116052380Y-125880952D01*
X116052380Y-126214285D01*
X116100000Y-126309523D01*
X116147619Y-126357142D01*
X116242857Y-126404761D01*
X116338095Y-126404761D01*
X116433333Y-126357142D01*
X116480952Y-126309523D01*
X116528571Y-126214285D01*
X116528571Y-125880952D01*
X116052380Y-126738095D02*
X116052380Y-127309523D01*
X117052380Y-127023809D02*
X116052380Y-127023809D01*
X117052380Y-128166666D02*
X117052380Y-127595238D01*
X117052380Y-127880952D02*
X116052380Y-127880952D01*
X116195238Y-127785714D01*
X116290476Y-127690476D01*
X116338095Y-127595238D01*
X176528571Y-93214285D02*
X176576190Y-93357142D01*
X176623809Y-93404761D01*
X176719047Y-93452380D01*
X176861904Y-93452380D01*
X176957142Y-93404761D01*
X177004761Y-93357142D01*
X177052380Y-93261904D01*
X177052380Y-92880952D01*
X176052380Y-92880952D01*
X176052380Y-93214285D01*
X176100000Y-93309523D01*
X176147619Y-93357142D01*
X176242857Y-93404761D01*
X176338095Y-93404761D01*
X176433333Y-93357142D01*
X176480952Y-93309523D01*
X176528571Y-93214285D01*
X176528571Y-92880952D01*
X176052380Y-93738095D02*
X176052380Y-94309523D01*
X177052380Y-94023809D02*
X176052380Y-94023809D01*
X177052380Y-95166666D02*
X177052380Y-94595238D01*
X177052380Y-94880952D02*
X176052380Y-94880952D01*
X176195238Y-94785714D01*
X176290476Y-94690476D01*
X176338095Y-94595238D01*
X146528571Y-93214285D02*
X146576190Y-93357142D01*
X146623809Y-93404761D01*
X146719047Y-93452380D01*
X146861904Y-93452380D01*
X146957142Y-93404761D01*
X147004761Y-93357142D01*
X147052380Y-93261904D01*
X147052380Y-92880952D01*
X146052380Y-92880952D01*
X146052380Y-93214285D01*
X146100000Y-93309523D01*
X146147619Y-93357142D01*
X146242857Y-93404761D01*
X146338095Y-93404761D01*
X146433333Y-93357142D01*
X146480952Y-93309523D01*
X146528571Y-93214285D01*
X146528571Y-92880952D01*
X146052380Y-93738095D02*
X146052380Y-94309523D01*
X147052380Y-94023809D02*
X146052380Y-94023809D01*
X147052380Y-95166666D02*
X147052380Y-94595238D01*
X147052380Y-94880952D02*
X146052380Y-94880952D01*
X146195238Y-94785714D01*
X146290476Y-94690476D01*
X146338095Y-94595238D01*
X116528571Y-93214285D02*
X116576190Y-93357142D01*
X116623809Y-93404761D01*
X116719047Y-93452380D01*
X116861904Y-93452380D01*
X116957142Y-93404761D01*
X117004761Y-93357142D01*
X117052380Y-93261904D01*
X117052380Y-92880952D01*
X116052380Y-92880952D01*
X116052380Y-93214285D01*
X116100000Y-93309523D01*
X116147619Y-93357142D01*
X116242857Y-93404761D01*
X116338095Y-93404761D01*
X116433333Y-93357142D01*
X116480952Y-93309523D01*
X116528571Y-93214285D01*
X116528571Y-92880952D01*
X116052380Y-93738095D02*
X116052380Y-94309523D01*
X117052380Y-94023809D02*
X116052380Y-94023809D01*
X117052380Y-95166666D02*
X117052380Y-94595238D01*
X117052380Y-94880952D02*
X116052380Y-94880952D01*
X116195238Y-94785714D01*
X116290476Y-94690476D01*
X116338095Y-94595238D01*
X176528571Y-60214285D02*
X176576190Y-60357142D01*
X176623809Y-60404761D01*
X176719047Y-60452380D01*
X176861904Y-60452380D01*
X176957142Y-60404761D01*
X177004761Y-60357142D01*
X177052380Y-60261904D01*
X177052380Y-59880952D01*
X176052380Y-59880952D01*
X176052380Y-60214285D01*
X176100000Y-60309523D01*
X176147619Y-60357142D01*
X176242857Y-60404761D01*
X176338095Y-60404761D01*
X176433333Y-60357142D01*
X176480952Y-60309523D01*
X176528571Y-60214285D01*
X176528571Y-59880952D01*
X176052380Y-60738095D02*
X176052380Y-61309523D01*
X177052380Y-61023809D02*
X176052380Y-61023809D01*
X177052380Y-62166666D02*
X177052380Y-61595238D01*
X177052380Y-61880952D02*
X176052380Y-61880952D01*
X176195238Y-61785714D01*
X176290476Y-61690476D01*
X176338095Y-61595238D01*
X146528571Y-60214285D02*
X146576190Y-60357142D01*
X146623809Y-60404761D01*
X146719047Y-60452380D01*
X146861904Y-60452380D01*
X146957142Y-60404761D01*
X147004761Y-60357142D01*
X147052380Y-60261904D01*
X147052380Y-59880952D01*
X146052380Y-59880952D01*
X146052380Y-60214285D01*
X146100000Y-60309523D01*
X146147619Y-60357142D01*
X146242857Y-60404761D01*
X146338095Y-60404761D01*
X146433333Y-60357142D01*
X146480952Y-60309523D01*
X146528571Y-60214285D01*
X146528571Y-59880952D01*
X146052380Y-60738095D02*
X146052380Y-61309523D01*
X147052380Y-61023809D02*
X146052380Y-61023809D01*
X147052380Y-62166666D02*
X147052380Y-61595238D01*
X147052380Y-61880952D02*
X146052380Y-61880952D01*
X146195238Y-61785714D01*
X146290476Y-61690476D01*
X146338095Y-61595238D01*
X116528571Y-60214285D02*
X116576190Y-60357142D01*
X116623809Y-60404761D01*
X116719047Y-60452380D01*
X116861904Y-60452380D01*
X116957142Y-60404761D01*
X117004761Y-60357142D01*
X117052380Y-60261904D01*
X117052380Y-59880952D01*
X116052380Y-59880952D01*
X116052380Y-60214285D01*
X116100000Y-60309523D01*
X116147619Y-60357142D01*
X116242857Y-60404761D01*
X116338095Y-60404761D01*
X116433333Y-60357142D01*
X116480952Y-60309523D01*
X116528571Y-60214285D01*
X116528571Y-59880952D01*
X116052380Y-60738095D02*
X116052380Y-61309523D01*
X117052380Y-61023809D02*
X116052380Y-61023809D01*
X117052380Y-62166666D02*
X117052380Y-61595238D01*
X117052380Y-61880952D02*
X116052380Y-61880952D01*
X116195238Y-61785714D01*
X116290476Y-61690476D01*
X116338095Y-61595238D01*
M02*
